<svg width="1920" height="3381" viewBox="0 0 1920 3381" fill="none" xmlns="http://www.w3.org/2000/svg">
<path d="M1661.68 198.081C1680.28 198.081 1695.36 183.004 1695.36 164.405C1695.36 145.807 1680.28 130.729 1661.68 130.729C1643.07 130.729 1627.99 145.807 1627.99 164.405C1627.99 183.004 1643.07 198.081 1661.68 198.081Z" fill="#6C63FF"/>
<path d="M1230.52 312.578C1234.24 312.578 1237.26 309.563 1237.26 305.843C1237.26 302.123 1234.24 299.108 1230.52 299.108C1226.8 299.108 1223.78 302.123 1223.78 305.843C1223.78 309.563 1226.8 312.578 1230.52 312.578Z" fill="#6C63FF"/>
<path d="M886.939 443.914C890.66 443.914 893.676 440.898 893.676 437.179C893.676 433.459 890.66 430.443 886.939 430.443C883.219 430.443 880.203 433.459 880.203 437.179C880.203 440.898 883.219 443.914 886.939 443.914Z" fill="#6C63FF"/>
<path d="M506.307 272.167C510.028 272.167 513.044 269.152 513.044 265.432C513.044 261.712 510.028 258.697 506.307 258.697C502.586 258.697 499.57 261.712 499.57 265.432C499.57 269.152 502.586 272.167 506.307 272.167Z" fill="#FF6584"/>
<path d="M667.992 103.789C671.713 103.789 674.729 100.774 674.729 97.054C674.729 93.3343 671.713 90.3188 667.992 90.3188C664.272 90.3188 661.255 93.3343 661.255 97.054C661.255 100.774 664.272 103.789 667.992 103.789Z" fill="white"/>
<path d="M1793.05 66.7452C1796.77 66.7452 1799.78 63.7298 1799.78 60.01C1799.78 56.2903 1796.77 53.2749 1793.05 53.2749C1789.32 53.2749 1786.31 56.2903 1786.31 60.01C1786.31 63.7298 1789.32 66.7452 1793.05 66.7452Z" fill="white"/>
<path d="M1446.1 181.243C1449.82 181.243 1452.83 178.227 1452.83 174.508C1452.83 170.788 1449.82 167.772 1446.1 167.772C1442.38 167.772 1439.36 170.788 1439.36 174.508C1439.36 178.227 1442.38 181.243 1446.1 181.243Z" fill="white"/>
<path d="M1843.57 292.373C1847.29 292.373 1850.31 289.358 1850.31 285.638C1850.31 281.918 1847.29 278.903 1843.57 278.903C1839.85 278.903 1836.83 281.918 1836.83 285.638C1836.83 289.358 1839.85 292.373 1843.57 292.373Z" fill="white"/>
<path d="M661.255 403.503C664.976 403.503 667.992 400.488 667.992 396.768C667.992 393.048 664.976 390.033 661.255 390.033C657.534 390.033 654.518 393.048 654.518 396.768C654.518 400.488 657.534 403.503 661.255 403.503Z" fill="white"/>
<path d="M145.886 383.297C149.607 383.297 152.623 380.282 152.623 376.562C152.623 372.842 149.607 369.827 145.886 369.827C142.166 369.827 139.149 372.842 139.149 376.562C139.149 380.282 142.166 383.297 145.886 383.297Z" fill="#FF6584"/>
<path d="M398.65 454.309L392.297 454.861L390.862 461.074L388.369 455.205L382.017 455.76L386.83 451.578L384.337 445.708L389.804 448.992L394.618 444.809L393.183 451.022L398.65 454.309Z" fill="white"/>
<path d="M1210.44 97.3461L1204.09 97.8984L1202.65 104.112L1200.16 98.2419L1193.81 98.7975L1198.62 94.615L1196.13 88.7453L1201.59 92.0287L1206.41 87.8462L1204.97 94.0594L1210.44 97.3461Z" fill="white"/>
<path d="M1594.44 370.12L1588.09 370.672L1586.65 376.885L1584.16 371.016L1577.81 371.571L1582.62 367.389L1580.13 361.519L1585.59 364.803L1590.41 360.62L1588.97 366.833L1594.44 370.12Z" fill="white"/>
<path d="M880.334 292.666L873.982 293.218L872.547 299.431L870.054 293.562L863.701 294.117L868.515 289.935L866.022 284.065L871.489 287.349L876.302 283.166L874.867 289.379L880.334 292.666Z" fill="white"/>
<path d="M580.545 592.379L574.192 592.932L572.757 599.145L570.264 593.275L563.912 593.831L568.725 589.648L566.232 583.779L571.699 587.062L576.513 582.879L575.078 589.093L580.545 592.379Z" fill="white"/>
<path d="M1850.44 585.644L1844.09 586.196L1842.65 592.409L1840.16 586.54L1833.81 587.095L1838.62 582.913L1836.13 577.043L1841.59 580.327L1846.41 576.144L1844.97 582.357L1850.44 585.644Z" fill="white"/>
<path d="M220.124 195.006L213.771 195.559L212.336 201.772L209.844 195.902L203.491 196.458L208.304 192.275L205.812 186.405L211.279 189.689L216.092 185.506L214.657 191.72L220.124 195.006Z" fill="white"/>
<rect x="5.5" y="5.5" width="1909" height="3370" stroke="black" stroke-width="11"/>
</svg>
