<svg width="1920" height="3381" viewBox="0 0 1920 3381" fill="none" xmlns="http://www.w3.org/2000/svg">
<path d="M575.076 818.033C571.389 816.223 568.496 813.12 566.949 809.315C565.402 805.511 565.31 801.27 566.689 797.402C568.068 793.533 570.822 790.307 574.427 788.338C578.032 786.369 582.236 785.795 586.237 786.724C590.238 787.654 593.757 790.023 596.124 793.38C598.491 796.736 599.54 800.846 599.071 804.926C598.602 809.006 596.649 812.771 593.582 815.504C590.516 818.237 586.551 819.746 582.443 819.744C579.889 819.743 577.369 819.158 575.076 818.033ZM579.166 793.345C577.91 793.774 576.752 794.447 575.758 795.327C574.764 796.206 573.954 797.274 573.375 798.468C572.346 800.574 572.08 802.973 572.621 805.253C573.163 807.533 574.478 809.555 576.344 810.974C578.21 812.393 580.51 813.121 582.852 813.034C585.195 812.947 587.435 812.05 589.19 810.497C590.945 808.943 592.107 806.829 592.477 804.515C592.848 802.201 592.404 799.83 591.221 797.807C590.039 795.783 588.191 794.233 585.993 793.419C583.794 792.605 581.382 792.579 579.166 793.345Z" fill="#E6E6E6"/>
<path d="M121.793 869.27C155.279 869.27 182.424 842.131 182.424 808.654C182.424 775.176 155.279 748.038 121.793 748.038C88.3068 748.038 61.1611 775.176 61.1611 808.654C61.1611 842.131 88.3068 869.27 121.793 869.27Z" fill="#3F3D56"/>
<path d="M1468.67 464.123L1402.27 802.614L1408.88 803.911L1475.28 465.42L1468.67 464.123Z" fill="#E6E6E6"/>
<path d="M1456.57 447.317C1457.3 443.237 1459.5 439.569 1462.76 437.012C1466.03 434.455 1470.12 433.187 1474.25 433.452C1478.39 433.716 1482.28 435.494 1485.19 438.446C1488.1 441.398 1489.82 445.317 1490.03 449.456C1490.23 453.596 1488.9 457.665 1486.3 460.888C1483.69 464.111 1479.99 466.262 1475.9 466.931C1471.81 467.6 1467.61 466.741 1464.12 464.516C1460.62 462.291 1458.06 458.857 1456.94 454.869C1456.24 452.412 1456.12 449.83 1456.57 447.317ZM1483.1 452.099C1483.49 449.939 1483.17 447.71 1482.18 445.749C1481.19 443.788 1479.6 442.202 1477.63 441.23C1475.66 440.259 1473.43 439.954 1471.27 440.362C1469.11 440.771 1467.14 441.87 1465.67 443.495C1464.19 445.119 1463.28 447.18 1463.08 449.366C1462.88 451.552 1463.39 453.744 1464.55 455.612C1465.7 457.479 1467.43 458.92 1469.48 459.717C1471.53 460.514 1473.78 460.624 1475.89 460.029C1477.71 459.514 1479.36 458.498 1480.63 457.096C1481.91 455.694 1482.76 453.963 1483.1 452.099Z" fill="#E6E6E6"/>
<path d="M1385.37 963.068C1418.85 963.068 1446 935.929 1446 902.452C1446 868.974 1418.85 841.835 1385.37 841.835C1351.88 841.835 1324.74 868.974 1324.74 902.452C1324.74 935.929 1351.88 963.068 1385.37 963.068Z" fill="#3F3D56"/>
<path d="M567.961 798.107L222.971 803.089L223.069 809.824L568.059 804.842L567.961 798.107Z" fill="#E6E6E6"/>
<rect x="5.5" y="5.5" width="1909" height="3370" stroke="black" stroke-width="11"/>
</svg>
