<svg width="1920" height="3381" viewBox="0 0 1920 3381" fill="none" xmlns="http://www.w3.org/2000/svg">
<path fill-rule="evenodd" clip-rule="evenodd" d="M-306.856 3321.81C-306.947 3336.11 -307 3341.23 -307 3321.75L-306.856 3321.81Z" fill="#22212E"/>
<path d="M-50.9484 2459.92C-52.1354 2481.11 -57.2227 2498.01 -63.6667 2509.95C-70.1107 2521.89 -77.9098 2528.86 -85.2028 2539.73C-92.4958 2550.59 -99.2761 2565.35 -102.159 2591.64C-105.043 2617.93 -104.024 2655.75 -103.686 2678.56C-103.343 2701.36 -103.683 2709.14 -114.365 2731.67C-125.046 2754.21 -146.079 2791.5 -158.964 2816.98C-171.853 2842.47 -176.601 2856.15 -181.011 2883.25C-185.417 2910.34 -189.488 2950.85 -192.371 2984.92C-195.249 3018.99 -196.949 3046.63 -201.525 3061.92C-206.106 3077.21 -213.569 3080.16 -220.689 3084.99C-227.811 3089.82 -234.591 3096.53 -237.474 3108.2C-240.357 3119.86 -239.342 3136.5 -239.851 3148.3C-240.361 3160.1 -242.393 3167.08 -253.417 3179.56C-264.439 3192.03 -284.447 3210.01 -294.791 3219.87C-305.132 3229.73 -305.813 3231.47 -306.236 3247.1C-306.492 3256.56 -306.718 3299.93 -306.856 3321.81L-192.371 3371.06L-114.365 3433C217.121 3441.48 1996.95 3380.73 2003.97 3381L2007 3372.32V2290.05C2004.86 2125.7 2002.56 1952.17 2000.25 1778.63C1971.6 1803.05 1927.09 1813.36 1899.42 1817.26C1867.4 1821.77 1857.9 1817.69 1834.43 1814.47C1810.96 1811.25 1773.52 1808.89 1740.41 1809.54C1707.32 1810.18 1678.55 1813.83 1662.82 1814.37C1647.34 1814.89 1644.46 1812.41 1638.57 1807.33L1638.26 1807.07C1632.16 1801.81 1622.66 1793.87 1614.11 1786.57C1605.57 1779.27 1597.97 1772.62 1594.44 1768.22C1592.72 1766.08 1591.98 1764.48 1593.4 1761.83L1593.38 1761.82C1583.79 1757.72 1574.19 1753.62 1556.34 1749.16C1538.48 1744.7 1512.37 1739.87 1478.97 1733.03C1445.56 1726.19 1404.86 1717.34 1380.43 1708.89C1356.02 1700.43 1347.88 1692.39 1340.08 1689.17C1332.28 1685.95 1324.82 1687.56 1292.25 1692.92C1259.7 1698.29 1202.04 1707.41 1174.05 1711.84C1146.08 1716.26 1147.78 1715.99 1138.79 1707.01C1129.8 1698.02 1110.12 1680.31 1092.15 1669.32C1074.18 1658.32 1057.9 1654.02 979.726 1656.84C901.554 1659.66 761.488 1669.58 677.383 1676.15C593.277 1682.73 565.122 1685.95 546.468 1695.07C527.818 1704.19 518.658 1719.21 499.495 1732.49C480.336 1745.77 451.168 1757.31 419.793 1767.37C388.425 1777.43 354.847 1786.01 323.304 1794.73C291.763 1803.45 262.254 1812.3 230.711 1819.15C199.172 1825.99 165.593 1830.81 122.521 1841.81C79.4504 1852.81 26.8811 1869.98 -1.272 1882.19C-29.4203 1894.4 -33.1461 1901.64 -34.5044 1916.4C-35.8627 1931.15 -34.8424 1953.42 -32.2987 1968.17C-29.7535 1982.93 -25.6881 1990.17 -26.0245 1994.46C-26.3625 1998.75 -31.1134 2000.1 -39.9297 2007.74C-48.7476 2015.39 -61.6404 2029.34 -68.7588 2039.8C-75.8836 2050.26 -77.2386 2057.24 -74.019 2114.65C-70.7946 2172.06 -62.9891 2279.9 -57.732 2346.57C-56.1639 2366.46 -54.8216 2382.68 -53.742 2396.22C-51.2031 2428.06 -50.1155 2445.05 -50.9484 2459.92Z" fill="#22212E"/>
<path d="M1673 1827.08L1748.32 1883.04L1838.89 1899L1997.44 1873.98L2022.97 1826.78L1985.23 1731.54L1961.15 1720.12L1948.2 1659.44L1847.98 1654L1831.07 1686.15L1804.13 1694.24L1777.83 1732.75L1717.22 1747.62L1673 1827.08Z" fill="#22212E"/>
<path d="M1797.58 1759.87C1800.05 1757.52 1802.82 1755.5 1805.82 1753.88C1802.87 1752.16 1799.38 1751.63 1796.05 1752.38C1796.05 1749.83 1798.69 1747.99 1799.11 1745.47C1796.25 1746.11 1793.64 1747.58 1791.62 1749.7C1791.85 1747.11 1792.1 1744.42 1792.33 1741.92C1790.55 1743.44 1789.31 1745.5 1788.81 1747.78C1788.72 1748.03 1788.65 1748.26 1788.58 1748.49L1777.83 1732.79L1752.07 1739.11C1752.01 1736.49 1752.15 1733.86 1752.49 1731.26C1749.92 1732.86 1747.69 1734.96 1745.94 1737.44L1740.32 1730.09C1740.32 1732.93 1740.32 1735.78 1740.32 1738.62C1737.28 1736.18 1733.78 1734.38 1730.03 1733.34C1731.77 1735.53 1733.29 1737.89 1734.58 1740.38C1735.01 1741.33 1735.57 1742.21 1736.25 1743.01L1717.29 1747.66L1803.23 1769.63L1796.91 1760.43C1797.16 1760.29 1797.39 1760.09 1797.58 1759.87Z" fill="#22212E"/>
<path d="M1847.98 1654L1922.53 1687.83L1948.2 1659.44L1847.98 1654Z" fill="#22212E"/>
<path d="M1915.45 1826.54L1836.83 1854.34L1743.84 1809.98L1838.88 1835.42L1915.45 1826.54Z" fill="#22212E"/>
<path d="M1838.89 1899L1836.83 1854.34L1915.44 1826.54L1918.35 1886.47L1838.89 1899Z" fill="#22212E"/>
<path d="M1961.15 1720.12L1941.2 1762.74L1920.52 1766.53L1899.87 1770.32C1896.51 1770.93 1893.6 1772.57 1891.22 1769.75C1890.55 1768.96 1886.52 1763.25 1887.38 1762.26C1886.26 1763.6 1885.25 1765.02 1884.35 1766.51C1880.39 1760.49 1876.16 1754.18 1869.8 1750.8C1873.92 1756.7 1876.19 1763.71 1876.32 1770.92C1873.02 1768.84 1869.54 1767.07 1865.92 1765.63C1868.26 1767.31 1869.89 1769.78 1870.52 1772.59C1871.36 1776.43 1869.04 1776.01 1865.8 1776.61L1846.98 1780.13C1841.04 1781.22 1834.84 1783.02 1828.82 1783.46L1966.24 1773.24L1985.18 1731.73L1961.15 1720.12Z" fill="#22212E"/>
<path d="M1831.07 1686.15L1854.89 1710.91L1918.35 1721.43L1827 1724.23L1804.13 1694.24L1831.07 1686.15Z" fill="#22212E"/>
<path d="M190.999 1994.59C190.999 1994.59 -27.8722 2042.54 -31.4004 2035.71C-34.9286 2028.89 -68.3476 1976.15 -68.3476 1976.15L-55.1623 1941.27L-83.7291 1881.32L-57.7121 1827.54L-75.5093 1786.66L-28.687 1724.49L23.2452 1702.1L-10.0303 1768.59L2.14677 1786.24L130.114 1906.34L190.999 1994.59Z" fill="#22212E"/>
<path d="M190.999 1994.59L130.114 1906.34L228.054 1786.7L292.02 1846.74L190.999 1994.59Z" fill="#22212E"/>
<path d="M228.054 1786.7L141.059 1775.07L75.2086 1892.15L130.113 1906.34L228.054 1786.7Z" fill="#22212E"/>
<path d="M75.2087 1892.15L3.63655 1804.76L58.6709 1753.75L81.6644 1705.33L141.06 1775.07L75.2087 1892.15Z" fill="#22212E"/>
<path d="M28.2358 1709.64L81.6648 1705.33L58.6713 1753.75L3.63701 1804.76L-39.1049 1808.2L2.14711 1786.24L40.4129 1727.29L28.2358 1709.64Z" fill="#22212E"/>
<path d="M40.4125 1727.29L23.2247 1702.11L-10.0302 1768.59L2.14678 1786.24L40.4125 1727.29Z" fill="#22212E"/>
<path d="M82.5239 1879.5L102.968 1876.2L94.4258 1863.82L80.1346 1864.81L82.5239 1879.5Z" fill="#22212E"/>
<path d="M98.4548 1855.23L94.4259 1863.82L102.968 1876.2L109.729 1864.34L98.4548 1855.23Z" fill="#22212E"/>
<path d="M80.1345 1864.81L88.6883 1857.52L98.4546 1855.23L94.4257 1863.82L80.1345 1864.81Z" fill="#22212E"/>
<path d="M203.982 1946.18L214.043 1945.89L223.926 1935.75L213.778 1937.48L208.53 1941.1L203.982 1946.18Z" fill="#22212E"/>
<path d="M222.51 1962.2L214.043 1945.89L223.926 1935.75L232.116 1941.17L222.51 1962.2Z" fill="#22212E"/>
<path d="M203.983 1946.18L209.814 1967.09L222.51 1962.2L214.043 1945.89L203.983 1946.18Z" fill="#22212E"/>
<path d="M266.637 1883.89L296.613 1876.55L330.547 1843.64L315.044 1832.7L294.799 1832.48L283.635 1836.34L265.682 1831.72L256.365 1839.66L266.637 1883.89Z" fill="#22212E"/>
<path d="M270.261 1840.33L283.838 1860.89L298.031 1847.65L294.799 1832.48L283.634 1836.34L270.261 1840.33Z" fill="#22212E"/>
<path d="M294.799 1832.48L298.031 1847.65L283.838 1860.89L263.047 1868.42L292.264 1864.64L314.327 1843.24L315.043 1832.7L294.799 1832.48Z" fill="#22212E"/>
<path d="M296.613 1876.55L292.264 1864.64L314.327 1843.24L315.044 1832.7L330.547 1843.64L296.613 1876.55Z" fill="#22212E"/>
<path d="M265.682 1831.72L256.365 1839.66L270.261 1840.33L283.634 1836.34L265.682 1831.72Z" fill="#22212E"/>
<path d="M115.887 1818.48L88.5935 1777.35L107.35 1775.24L128.269 1814.72L115.887 1818.48Z" fill="#22212E"/>
<path d="M128.268 1814.72L167.041 1778.08L149.701 1765.05L136.231 1760.79L121.311 1730.08L125.124 1747.85L107.35 1775.24L128.268 1814.72Z" fill="#22212E"/>
<path d="M88.5931 1777.35L108.064 1736.32L103.938 1731.48L121.311 1730.08L125.124 1747.85L107.35 1775.24L88.5931 1777.35Z" fill="#22212E"/>
<path d="M136.231 1760.79L138.79 1766.56L125.993 1788.09L149.701 1765.05L136.231 1760.79Z" fill="#22212E"/>
<path d="M-55.1624 1941.27L-38.4797 1947.74L75.5978 1922.23L-68.3477 1976.15L-55.1624 1941.27Z" fill="#22212E"/>
<path d="M-75.5297 1786.67L-10.0301 1768.6L23.2247 1702.11L-28.6727 1724.51L-75.5297 1786.67Z" fill="#22212E"/>
<path d="M-61.8991 1817.96L-79.9125 1855.93L-54.1577 1859.88L0.619994 1833.98L-57.7123 1827.54L-61.8991 1817.96Z" fill="#22212E"/>
<path d="M-79.9125 1855.93L-65.9899 1878.21L-38.2652 1883.53L0.62004 1833.98L-54.1576 1859.89L-79.9125 1855.93Z" fill="#22212E"/>
<path d="M947.56 1236.32L953.591 1142.91C953.859 1138.95 955.671 1135.26 958.638 1132.62C961.605 1129.99 965.489 1128.63 969.451 1128.84C971.5 1128.94 973.506 1129.46 975.348 1130.37C977.189 1131.28 978.826 1132.55 980.159 1134.11C981.493 1135.67 982.495 1137.48 983.104 1139.44C983.713 1141.4 983.916 1143.46 983.702 1145.5L974.461 1242.35L971.327 1301.43C973.762 1302.62 975.774 1304.52 977.088 1306.89C978.403 1309.26 978.957 1311.97 978.675 1314.66C978.393 1317.36 977.288 1319.9 975.511 1321.94C973.735 1323.98 971.372 1325.43 968.744 1326.09C966.116 1326.74 963.35 1326.57 960.823 1325.6C958.295 1324.62 956.128 1322.9 954.616 1320.65C953.104 1318.41 952.32 1315.75 952.371 1313.04C952.422 1310.33 953.306 1307.71 954.901 1305.52L947.56 1236.32Z" fill="#A0616A"/>
<path d="M946.164 1163.78C945.505 1163.06 945.1 1162.14 945.011 1161.17C944.923 1160.2 945.157 1159.22 945.676 1158.4C946.297 1157.36 946.58 1156.17 946.486 1154.96C946.465 1154.73 946.429 1154.5 946.378 1154.28C946.037 1152.91 946.03 1151.49 946.357 1150.13C946.684 1148.76 947.336 1147.5 948.258 1146.44C951.34 1143 952.959 1137.68 953.749 1132.91C954.306 1127.65 955.497 1122.48 957.295 1117.5C960.306 1110.5 967.119 1104.41 975.996 1107.76C979.75 1109.24 982.878 1111.98 984.851 1115.5C989.075 1122.8 988.813 1131.44 988.482 1139.71L990.212 1136.5C989.693 1145.52 991.003 1154.55 994.061 1163.05C992.072 1162.59 990.558 1165.23 991.136 1167.19C991.973 1169.06 993.285 1170.68 994.943 1171.88C996.815 1173.65 998.549 1176.24 996.642 1178.76C996.168 1179.35 995.578 1179.84 994.908 1180.19C994.237 1180.55 993.501 1180.76 992.745 1180.81C978.488 1182.14 964.109 1180.52 950.512 1176.03C947.492 1175.03 944.266 1173.68 942.777 1170.87C941.288 1168.06 942.987 1163.62 946.164 1163.78Z" fill="#F2F2F2"/>
<path d="M1070.82 1640.22H1087.29L1095.13 1576.7H1070.82V1640.22Z" fill="#A0616A"/>
<path d="M1065.44 1628.94L1091.76 1627.37V1638.64L1116.78 1655.92C1118.02 1656.77 1118.95 1658 1119.44 1659.42C1119.93 1660.84 1119.95 1662.38 1119.5 1663.81C1119.06 1665.24 1118.16 1666.5 1116.95 1667.39C1115.74 1668.28 1114.28 1668.76 1112.78 1668.76H1081.45L1076.05 1657.61L1073.94 1668.76H1062.12L1065.44 1628.94Z" fill="#F2F2F2"/>
<path d="M982.253 1625.72L997.596 1631.71L1028.03 1575.4L1005.39 1566.55L982.253 1625.72Z" fill="#A0616A"/>
<path d="M981.354 1613.26L1006.44 1621.37L1002.33 1631.87L1019.35 1657.07C1020.19 1658.31 1020.61 1659.79 1020.55 1661.29C1020.49 1662.79 1019.95 1664.23 1019.01 1665.41C1018.07 1666.58 1016.78 1667.42 1015.33 1667.81C1013.88 1668.2 1012.34 1668.11 1010.94 1667.57L981.762 1656.16L980.793 1643.81L974.768 1653.43L963.766 1649.13L981.354 1613.26Z" fill="#F2F2F2"/>
<path d="M992.612 1229.54H1069.47C1069.47 1229.54 1098.41 1436.18 1098.49 1436.56C1098.58 1436.94 1082.16 1442.9 1089.62 1450.36L1097.08 1457.82C1103.05 1463.79 1092.65 1484.19 1092.65 1484.19L1104.55 1605.54H1055.42L1031.42 1354.87L1063.89 1475.05L1021.58 1605.54L991.12 1587.63L985.15 1571.22L997.01 1559.37C997.01 1559.37 1000.07 1541.54 1000.07 1531.02C1000.07 1520.49 991.12 1529.44 1000.07 1520.49C1003.95 1516.62 1014.86 1469.09 1014.86 1469.09L979.181 1354.87L970.681 1303.89C968.494 1290.74 970.461 1277.25 976.307 1265.27C981.034 1255.58 986.989 1242.89 992.612 1229.54Z" fill="#51330E"/>
<path d="M988.135 1102.71L993.243 1087.39C994.379 1083.99 996.508 1080.99 999.357 1078.8C1002.21 1076.61 1005.64 1075.33 1009.23 1075.1L1013.77 1074.82C1017.81 1074.57 1021.81 1075.68 1025.14 1077.98C1028.47 1080.28 1030.93 1083.63 1032.12 1087.5C1033.16 1090.92 1035.21 1093.95 1037.98 1096.2C1040.76 1098.45 1044.15 1099.82 1047.71 1100.13C1060.98 1101.26 1080.67 1105.27 1080.67 1119.13C1080.67 1140.02 1058.28 1195.22 1062.76 1199.7C1067.23 1204.17 1077.68 1222.62 1071.71 1228.05C1070.16 1229.46 1071.41 1236.26 1071.91 1241.13C1072.81 1249.96 1010.52 1230.45 992.612 1235.51C974.703 1240.56 983.658 1202.68 980.673 1199.7C977.871 1196.28 975.374 1192.63 973.209 1188.78C972.152 1187.01 971.407 1185.07 971.008 1183.04L965.868 1157.03C965.782 1156.6 965.714 1156.17 965.66 1155.74C964.981 1150.17 961.005 1112.71 976.195 1107.19C992.612 1101.22 988.135 1102.71 988.135 1102.71Z" fill="#F2F2F2"/>
<path d="M1057.69 1240.09L1055.33 1146.51C1055.25 1142.54 1056.72 1138.7 1059.44 1135.82C1062.16 1132.93 1065.91 1131.23 1069.87 1131.07C1071.92 1131 1073.97 1131.34 1075.88 1132.08C1077.8 1132.81 1079.54 1133.93 1081.01 1135.37C1082.48 1136.8 1083.64 1138.52 1084.42 1140.42C1085.2 1142.31 1085.59 1144.35 1085.56 1146.4L1085.02 1243.69L1087.18 1302.81C1089.71 1303.77 1091.89 1305.49 1093.41 1307.73C1094.93 1309.97 1095.73 1312.63 1095.69 1315.33C1095.65 1318.04 1094.77 1320.67 1093.19 1322.86C1091.6 1325.06 1089.38 1326.71 1086.82 1327.6C1084.26 1328.48 1081.49 1328.56 1078.88 1327.82C1076.28 1327.08 1073.97 1325.55 1072.26 1323.45C1070.55 1321.35 1069.53 1318.77 1069.34 1316.07C1069.15 1313.37 1069.8 1310.68 1071.19 1308.35L1057.69 1240.09Z" fill="#A0616A"/>
<path d="M1047.21 1165.79C1046.49 1165.14 1046.01 1164.26 1045.83 1163.3C1045.66 1162.34 1045.8 1161.35 1046.25 1160.48C1046.77 1159.4 1046.95 1158.18 1046.75 1156.99C1046.7 1156.76 1046.65 1156.53 1046.58 1156.31C1046.11 1154.99 1045.98 1153.57 1046.18 1152.18C1046.39 1150.79 1046.92 1149.47 1047.75 1148.34C1050.51 1144.63 1051.65 1139.19 1052.01 1134.38C1052.09 1129.09 1052.81 1123.83 1054.16 1118.71C1056.53 1111.47 1062.77 1104.79 1071.91 1107.33C1075.79 1108.48 1079.14 1110.92 1081.43 1114.25C1086.29 1121.15 1086.8 1129.78 1087.21 1138.04L1088.64 1134.69C1088.93 1143.72 1091.05 1152.6 1094.85 1160.79C1092.83 1160.51 1091.56 1163.27 1092.31 1165.17C1093.31 1166.96 1094.76 1168.46 1096.52 1169.51C1098.54 1171.1 1100.5 1173.52 1098.83 1176.21C1098.41 1176.84 1097.87 1177.38 1097.23 1177.79C1096.59 1178.2 1095.88 1178.47 1095.13 1178.6C1081.05 1181.2 1066.58 1180.86 1052.64 1177.61C1049.54 1176.88 1046.21 1175.83 1044.47 1173.16C1042.74 1170.5 1044.03 1165.92 1047.21 1165.79Z" fill="#F2F2F2"/>
<path d="M1008.7 1077.35C1026.84 1077.35 1041.54 1062.66 1041.54 1044.53C1041.54 1026.4 1026.84 1011.7 1008.7 1011.7C990.568 1011.7 975.868 1026.4 975.868 1044.53C975.868 1062.66 990.568 1077.35 1008.7 1077.35Z" fill="#A0616A"/>
<path d="M977.677 1094.4C977.695 1090.56 982.741 1088.55 986.4 1089.75C990.046 1090.96 992.672 1094.06 995.605 1096.53C998.544 1099.02 1002.62 1101 1006.13 1099.45C1009.46 1097.98 1010.81 1094.03 1013.3 1091.39C1016.32 1088.58 1020.26 1086.98 1024.37 1086.89C1024.29 1086.51 1024.21 1086.14 1024.16 1085.76C1023.82 1083.79 1023.74 1081.77 1023.91 1079.77C1024.75 1081.49 1025.85 1083.05 1027.17 1084.42C1028.01 1085.29 1028.94 1086.07 1029.94 1086.75C1034.06 1087.07 1038.22 1086.76 1042.25 1085.82C1047.07 1084.4 1051.59 1080.14 1051.21 1075.11C1050.91 1073.26 1050.17 1071.51 1049.06 1070C1047.95 1068.49 1046.49 1067.26 1044.81 1066.43C1041.57 1064.55 1052.93 1056.24 1049.54 1054.65C1046.29 1053.22 1043.36 1051.14 1040.94 1048.55C1038.51 1045.95 1036.63 1042.89 1035.42 1039.55C1034.43 1036.58 1034.16 1033.42 1034.63 1030.33C1035.1 1027.24 1036.3 1024.31 1038.13 1021.77C1041.12 1021.39 1029.29 1022.81 1032.13 1021.78C1031.79 1019.8 1031.65 1023.12 1031.82 1021.13C1032.66 1022.85 1033.83 1019.07 1035.14 1020.44C1037.68 1019.16 1039.66 1017 1040.71 1014.36C1042.87 1008.59 1039.2 1007.46 1034.43 1003.54C1030.82 1000.57 1026.55 998.512 1021.97 997.52C1017.4 996.529 1012.66 996.636 1008.14 997.835C1003.62 999.033 999.449 1001.29 995.97 1004.41C992.491 1007.54 989.804 1011.44 988.131 1015.81C980.904 1012.2 971.606 1015.6 966.552 1021.92C961.517 1028.24 959.993 1036.69 959.934 1044.77C959.846 1062.88 966.127 1080.45 977.677 1094.4Z" fill="#2F2E41"/>
<path d="M858.505 1654.2L843.125 1654.19L835.809 1594.89L858.507 1594.89L858.505 1654.2Z" fill="#FFB6B6"/>
<path d="M859.046 1670.23L811.753 1670.23V1669.63C811.753 1664.75 813.693 1660.07 817.145 1656.62C820.597 1653.17 825.279 1651.23 830.161 1651.23L838.801 1644.68L854.918 1651.23H859.047L859.046 1670.23Z" fill="#ECECEC"/>
<path d="M928.402 1654.2L913.024 1654.19L905.708 1594.89L928.406 1594.89L928.402 1654.2Z" fill="#FFB6B6"/>
<path d="M928.943 1670.23L881.65 1670.23V1669.63C881.651 1664.75 883.59 1660.07 887.042 1656.62C890.494 1653.17 895.176 1651.23 900.058 1651.23L908.698 1644.68L924.816 1651.23H928.944L928.943 1670.23Z" fill="#ECECEC"/>
<path d="M821.114 1273.44C821.114 1273.44 796.26 1304.26 801.079 1312.25C805.898 1320.24 813.664 1317.47 805.898 1325.84C798.131 1334.22 795.02 1334.31 800.459 1340.48C805.898 1346.64 810.622 1481.34 810.622 1481.34L835.41 1621.5L862.691 1623.96C862.691 1623.96 867.781 1606.83 867.905 1600.19C868.029 1593.55 868.029 1599.33 868.029 1585.57C868.029 1571.81 863.121 1582.47 867.905 1569.38C872.689 1556.28 878.653 1517.7 867.905 1498.94C857.156 1480.19 865.604 1496.64 865.604 1496.64L873.931 1369.53L889.775 1500.38C889.775 1500.38 889.775 1545.41 897.542 1578.02L898.826 1623.96L932.3 1622.68C932.3 1622.68 941.034 1609.08 937.927 1593.55C934.821 1578.02 947.247 1570.26 947.247 1562.49C947.247 1554.73 946.593 1480.46 946.593 1480.46L939.334 1325.84C939.334 1325.84 945.694 1290.73 931.714 1276.76C917.734 1262.78 821.114 1273.44 821.114 1273.44Z" fill="#51330E"/>
<path d="M850.888 1109.46L872.338 1085.31L906.232 1089.08L927.933 1119.44C951.916 1124.96 956.339 1144.56 952.128 1168.8C943.707 1217.28 922.919 1251.16 932.368 1275.08C946.713 1311.39 939.758 1339.33 905.422 1334.24C871.085 1329.15 791.963 1295.54 814.265 1273.24C836.568 1250.94 829.747 1222.46 829.747 1222.46L832.285 1154.01C828.275 1132.27 828.894 1111.73 850.888 1109.46Z" fill="#6C63FF"/>
<path d="M840.585 1192.36L816.687 1176.96C801.393 1187.45 748.835 1239.81 748.835 1239.81L696.478 1287.8C694.303 1288.16 692.262 1289.09 690.562 1290.5C688.861 1291.9 687.56 1293.73 686.79 1295.79C686.02 1297.86 685.808 1300.09 686.175 1302.27C686.543 1304.44 687.476 1306.48 688.882 1308.18C690.289 1309.88 692.117 1311.18 694.185 1311.94C696.252 1312.71 698.486 1312.92 700.66 1312.55C702.834 1312.18 704.872 1311.24 706.57 1309.84C708.267 1308.43 709.563 1306.6 710.328 1304.53L775.364 1245.81L840.585 1192.36Z" fill="#FFB6B6"/>
<path d="M869.124 1119.5C872.801 1121.93 875.898 1125.14 878.193 1128.9C880.488 1132.67 881.926 1136.89 882.403 1141.27C882.881 1145.65 882.386 1150.08 880.955 1154.25C879.524 1158.42 877.192 1162.22 874.124 1165.39L861.63 1178.28C861.63 1178.28 801.239 1247.32 783.965 1255.22L740.725 1284.8L717.451 1266.43L755.183 1227.41C755.183 1227.41 804.041 1191.67 804.38 1178.14C804.588 1169.85 815.737 1146.01 827.602 1127.9C829.773 1124.62 832.571 1121.8 835.834 1119.6C839.098 1117.4 842.763 1115.87 846.619 1115.09C850.476 1114.31 854.449 1114.3 858.311 1115.05C862.172 1115.81 865.847 1117.32 869.124 1119.5Z" fill="#6C63FF"/>
<path d="M928.419 1053.92C934.919 1035.7 925.412 1015.66 907.186 1009.17C888.959 1002.67 868.915 1012.17 862.416 1030.39C855.917 1048.62 865.424 1068.66 883.65 1075.15C901.876 1081.65 921.92 1072.15 928.419 1053.92Z" fill="#FFB6B6"/>
<path d="M877.275 1002.23C878.746 999.665 880.775 997.464 883.213 995.79C884.384 995.105 885.686 994.676 887.035 994.529C888.383 994.383 889.747 994.522 891.038 994.939C892.329 995.355 893.517 996.039 894.525 996.946C895.534 997.853 896.339 998.962 896.89 1000.2C896.908 998.518 897.329 996.863 898.117 995.375C900.115 997.39 902.42 999.076 904.946 1000.37L901.27 992.169C915.208 991.113 925.046 994.946 929.466 1005.24C930.732 1008.19 935.49 1008.14 936.884 1011.21C938.279 1014.28 936.662 1019.21 933.415 1019.48C939.656 1019.37 937.739 1024.63 939.572 1030.97C941.406 1037.3 940.372 1044.42 938.318 1050.95C935.654 1059.43 928.178 1064.98 920.879 1069.31C916.106 1072.15 906.601 1076.45 906.552 1076.47C880.305 1090.24 863.571 1062.15 869.82 1034.42C871.231 1028.16 876.349 1021.37 872.681 1016.67C869.825 1013.01 864.417 1013.69 859.885 1014.66C861.651 1008.58 873.86 1007.52 877.275 1002.23Z" fill="#2F2E41"/>
<path d="M953.184 1200.37L925.449 1206.64C922.232 1224.9 922.821 1299.08 922.821 1299.08L920.433 1370.05C919.171 1371.86 918.407 1373.97 918.218 1376.16C918.03 1378.36 918.424 1380.57 919.36 1382.57C920.296 1384.56 921.742 1386.28 923.552 1387.54C925.361 1388.8 927.471 1389.56 929.669 1389.74C931.866 1389.93 934.074 1389.53 936.07 1388.59C938.065 1387.66 939.778 1386.21 941.037 1384.4C942.295 1382.59 943.054 1380.48 943.237 1378.28C943.42 1376.08 943.021 1373.88 942.08 1371.88L945.686 1284.35L953.184 1200.37Z" fill="#FFB6B6"/>
<path d="M921.132 1128.98C925.443 1128.06 929.904 1128.09 934.199 1129.09C938.493 1130.09 942.515 1132.02 945.979 1134.74C949.442 1137.47 952.261 1140.93 954.237 1144.87C956.212 1148.81 957.294 1153.14 957.406 1157.54L957.863 1175.49C957.863 1175.49 964.884 1266.94 958.43 1284.8L949.272 1336.37L919.861 1340.12L918.413 1285.86C918.413 1285.86 927.101 1225.97 917.673 1216.25C911.9 1210.3 902.683 1185.65 898.059 1164.5C897.237 1160.65 897.182 1156.68 897.897 1152.81C898.612 1148.94 900.083 1145.25 902.226 1141.95C904.369 1138.65 907.142 1135.81 910.386 1133.58C913.631 1131.36 917.282 1129.79 921.132 1128.98Z" fill="#6C63FF"/>
<rect x="5.5" y="5.5" width="1909" height="3370" stroke="black" stroke-width="11"/>
</svg>
