<svg width="1920" height="3381" viewBox="0 0 1920 3381" fill="none" xmlns="http://www.w3.org/2000/svg">
<path d="M518.63 1579.3C510.135 1534.91 505.592 1489.84 505.053 1444.63L507.517 1447.79C505.635 1442.69 504.761 1437.26 504.944 1431.82C506.593 1433.24 508.253 1434.36 509.843 1435.78C505.474 1417.62 501.937 1399.19 499.283 1380.67L504.373 1387.35C503.61 1383.92 503.464 1380.38 503.942 1376.89L509.176 1378.15C505.53 1354.37 500.291 1330.86 493.494 1307.8C494.389 1309.3 495.623 1310.57 497.097 1311.51C498.57 1312.44 500.242 1313.02 501.977 1313.19C497.612 1285.48 493.221 1257.97 488.802 1230.65L494.997 1232.89L485.248 1201.66L494.184 1213.8C493.567 1212.95 493.167 1211.97 493.022 1210.94C492.876 1209.9 492.988 1208.84 493.349 1207.86C493.479 1209.43 494.15 1210.9 495.244 1212.01C496.338 1213.13 497.787 1213.83 499.34 1213.99C496.517 1193 492.333 1172.22 486.816 1151.78C487.391 1152.17 488.037 1152.44 488.717 1152.58C489.396 1152.71 490.096 1152.71 490.776 1152.58C484.408 1131.61 479.325 1110.27 475.557 1088.68C471.609 1110.96 464.131 1132.46 453.407 1152.37C455.905 1152.38 458.356 1151.67 460.466 1150.33C459.843 1158.14 457.559 1165.72 453.768 1172.57C455.469 1172.27 457.091 1171.63 458.533 1170.68C451.839 1189.67 445.165 1208.68 438.509 1227.71C442.229 1225.2 445.309 1221.83 447.5 1217.9C444.424 1237.46 440.878 1257 436.864 1276.53C438.808 1275.76 440.513 1274.48 441.802 1272.83C443.091 1271.17 443.918 1269.2 444.197 1267.12L441.307 1283.24C443.169 1282.57 444.709 1281.22 445.615 1279.45C443.059 1313.39 437.207 1346.99 428.142 1379.79C430.283 1378.8 432.175 1377.34 433.675 1375.52C435.176 1373.69 436.247 1371.55 436.808 1369.25C436.74 1376.89 435.203 1384.45 432.281 1391.51L437.378 1388.57C436.761 1395.11 434.637 1401.42 431.175 1406.99C433.252 1406.47 435.137 1405.36 436.609 1403.79C438.081 1402.23 439.079 1400.27 439.485 1398.15C437.978 1420.29 433.351 1442.1 425.744 1462.92C426.954 1463.01 428.168 1462.83 429.3 1462.4C430.433 1461.96 431.455 1461.28 432.293 1460.39C430.427 1468.27 429.69 1476.37 430.105 1484.45L437.343 1474.45C432.337 1503.78 426.921 1533.09 421.095 1562.38L425.702 1558.42C423.838 1567.5 421.568 1576.45 418.831 1585.32C426.222 1586.41 433.749 1586.13 441.042 1584.49C440.831 1585 440.768 1585.55 440.863 1586.09C440.957 1586.63 441.204 1587.12 441.574 1587.52L461.266 1589.73C462.329 1589.92 463.414 1589.96 464.488 1589.85C468.143 1589.4 470.903 1586.2 474.406 1585.09C477.259 1588.2 480.812 1590.58 484.768 1592.03C486.756 1592.67 488.903 1592.61 490.852 1591.86C492.802 1591.1 494.436 1589.7 495.484 1587.88C503.918 1590.37 512.677 1591.55 521.465 1591.39C521.907 1589.29 521.882 1587.12 521.392 1585.03C520.902 1582.94 519.959 1580.98 518.63 1579.3Z" fill="#353251"/>
<path d="M398.428 1587.95C392.096 1580.63 387.694 1571.81 385.632 1562.3C388.136 1563.71 391.084 1564.06 393.842 1563.28C388.984 1555.46 385.204 1547.01 382.607 1538.16C383.206 1538 383.834 1537.98 384.439 1538.11C385.045 1538.25 385.61 1538.52 386.09 1538.92C384.402 1537.32 383.279 1535.2 382.893 1532.9C384.489 1533.51 386.207 1533.72 387.903 1533.52C389.598 1533.31 391.221 1532.7 392.633 1531.73C389.632 1529.71 387.115 1527.03 385.264 1523.9C383.413 1520.76 382.275 1517.25 381.933 1513.61C382.821 1514.55 383.927 1515.25 385.151 1515.64C386.374 1516.03 387.675 1516.1 388.934 1515.85C388.098 1514.39 387.705 1512.71 387.803 1511.02L392.635 1511.65C391.745 1510.94 391.045 1510.03 390.599 1508.98C390.152 1507.93 389.974 1506.78 390.08 1505.64C391.428 1506.41 392.989 1506.72 394.525 1506.51C396.061 1506.31 397.489 1505.6 398.592 1504.49C393.019 1498.06 388.479 1490.78 385.139 1482.92C387.777 1484.03 390.727 1484.12 393.431 1483.18C387.811 1478.74 383.882 1472.46 382.311 1465.41C383.605 1465.99 385.07 1466.03 386.398 1465.54C384.904 1464.27 383.682 1462.69 382.806 1460.92L389.871 1461.15C389.048 1460.39 388.395 1459.46 387.954 1458.43C387.514 1457.39 387.296 1456.27 387.316 1455.15L392.805 1455.32C389.795 1451.5 387.389 1447.23 385.671 1442.65C387.481 1442.71 389.132 1442.29 390.942 1442.35C384.119 1435.2 379.993 1425.84 379.281 1415.91C379.9 1416.42 380.615 1416.8 381.382 1417.01C382.149 1417.23 382.952 1417.29 383.741 1417.18C382.435 1412.34 381.071 1407.5 379.708 1402.6C381.249 1402.77 382.807 1402.53 384.231 1401.92C380.913 1398.28 378.615 1393.81 377.574 1388.97L381.595 1391.17C381.677 1388.62 381.76 1386.02 381.842 1383.48C382.909 1384.81 385.336 1383.88 385.973 1382.25C386.36 1380.52 386.149 1378.72 385.377 1377.13L374.648 1347.17L380.893 1351.11C380.942 1349.57 380.992 1348.03 381.041 1346.49C381.187 1347.09 381.493 1347.65 381.926 1348.09C382.358 1348.53 382.902 1348.85 383.497 1349C384.093 1349.15 384.718 1349.14 385.307 1348.96C385.896 1348.78 386.425 1348.44 386.839 1347.98C384.74 1346.48 382.994 1344.53 381.723 1342.26C380.452 1340 379.688 1337.48 379.484 1334.89C378.685 1330.66 378.119 1326.43 377.612 1322.21L376.926 1316.27C376.05 1308.95 375.115 1301.64 374.239 1294.32C374.776 1294.96 375.512 1295.4 376.326 1295.55C377.14 1295.71 377.983 1295.58 378.713 1295.18C374.822 1284.63 371.999 1273.7 370.29 1262.57C370.662 1263.12 371.157 1263.58 371.735 1263.91C372.313 1264.23 372.958 1264.42 373.62 1264.45L373.209 1259.05L377.267 1261.9C376.91 1258.46 376.61 1255.07 376.251 1251.68C376.567 1252.76 378.268 1252.58 378.878 1251.77C379.292 1250.73 379.329 1249.57 378.983 1248.51C376.667 1236.89 374.353 1225.2 372.096 1213.58L375.992 1216.02C372.38 1202.32 370.592 1188.2 370.676 1174.03C366.726 1195.11 361.79 1215.95 355.868 1236.58C356.716 1236.72 357.584 1236.68 358.416 1236.46C359.248 1236.24 360.027 1235.85 360.702 1235.31C361.403 1247.38 359.438 1259.46 354.95 1270.66L358.358 1268.29C357.695 1283.7 355.084 1298.96 350.588 1313.7C352.616 1312.57 354.365 1310.99 355.705 1309.07C355.954 1313.08 355.367 1317.1 353.982 1320.86C355.527 1320.74 357.006 1320.17 358.243 1319.22C357.651 1330.78 354.066 1341.99 347.849 1351.7C348.833 1352.15 349.93 1352.27 350.986 1352.05C352.042 1351.83 353.003 1351.28 353.733 1350.47C352.289 1356.63 349.702 1362.46 346.11 1367.64C350.381 1365.71 353.999 1362.55 356.513 1358.56C353.444 1366.49 349.434 1374.02 344.571 1380.98C345.554 1381.14 346.561 1381.08 347.52 1380.81C348.478 1380.53 349.365 1380.04 350.117 1379.38C350.019 1383.55 348.776 1387.61 346.526 1391.11C347.385 1393.04 347.673 1395.18 347.357 1397.27C347.041 1399.36 346.134 1401.32 344.745 1402.9C345.413 1403.33 346.182 1403.57 346.973 1403.59C347.763 1403.62 348.546 1403.43 349.241 1403.04C349.466 1408.84 348.34 1414.61 345.953 1419.88L351.162 1417.85C345.573 1433.7 338.285 1448.88 329.427 1463.12L337.722 1457.82C337.657 1459.83 337.591 1461.9 337.123 1463.72C338.816 1463.25 340.369 1462.36 341.648 1461.14L341.517 1465.23C344.102 1464.12 346.469 1462.55 348.505 1460.59C346.04 1466.91 342.617 1472.79 338.359 1478.04L341.32 1478.67L339.34 1487.55C338.405 1494.34 335.426 1500.68 330.808 1505.69C332.028 1506.4 333.411 1506.77 334.817 1506.76C336.223 1506.76 337.603 1506.37 338.817 1505.66C338.176 1511.94 336.333 1518.04 333.39 1523.61L342.177 1517.55C338.968 1529.27 333.639 1540.29 326.463 1550.04C330.165 1549.12 333.545 1547.18 336.229 1544.43C333.044 1550.78 329.978 1557.08 326.736 1563.38L333.252 1560.68C331.328 1568.6 327.294 1575.82 321.593 1581.57C323.049 1581.96 324.572 1582.02 326.055 1581.75C327.537 1581.48 328.944 1580.89 330.177 1580.01C330.099 1581.71 329.663 1583.36 328.899 1584.87C328.134 1586.38 327.059 1587.7 325.747 1588.75C329.671 1589.65 333.776 1589.26 337.472 1587.65C342.753 1585.21 347.095 1584.7 352.537 1582.68C352.2 1584.61 351.238 1586.37 349.804 1587.69C352.731 1587.61 355.578 1586.7 358.014 1585.05C357.821 1586.59 358.054 1588.16 358.687 1589.57C360.463 1588.02 361.799 1586.02 362.556 1583.78C366.28 1587.92 371.218 1592.52 376.641 1591.1C376.161 1589.66 375.742 1588.17 375.32 1586.73C382.631 1590.22 390.988 1588.48 398.428 1587.95Z" fill="#353251"/>
<path d="M571.55 1578.49C565.967 1568.58 563.013 1557.39 562.973 1545.99L562.599 1532.51L566.492 1534.55C567.918 1520.29 566.074 1505.9 561.103 1492.48C560.283 1490.7 559.879 1488.75 559.922 1486.79C560.021 1484.84 561.938 1482.98 563.801 1483.31C562.397 1478.65 561.751 1473.8 561.886 1468.93C563.266 1469.71 564.883 1469.97 566.435 1469.63C564.381 1458.85 563.441 1447.87 563.629 1436.89C564.019 1436.87 564.408 1436.94 564.769 1437.09C565.13 1437.25 565.454 1437.47 565.718 1437.76C565.983 1438.05 566.182 1438.4 566.302 1438.77C566.422 1439.15 566.46 1439.54 566.413 1439.94L565.738 1412.69C565.949 1413.66 566.45 1414.54 567.172 1415.21C567.895 1415.89 568.804 1416.32 569.779 1416.45C567.346 1393.47 563.478 1370.66 558.197 1348.17L566.591 1354.17C562.806 1346.48 560.918 1337.99 561.088 1329.41L558.811 1290.88C556.745 1268.79 556.144 1246.57 557.012 1224.4C552.726 1249.77 546.822 1274.83 539.336 1299.44C540.21 1299.73 541.137 1299.83 542.054 1299.74C542.972 1299.64 543.858 1299.35 544.654 1298.88L535.468 1333.98L541.582 1329.31C538.209 1351.78 521.81 1371.52 522.186 1394.24L526.951 1387.19C526.346 1391.01 525.799 1394.84 525.194 1398.66C528.957 1395.9 532.376 1392.69 535.376 1389.1C533.797 1399.86 529.756 1410.11 523.573 1419.03L528.524 1418.75L510.184 1474.43L516.838 1469.55C516.573 1472.44 515.894 1475.28 514.823 1477.98L518.311 1475.26C516.635 1488.74 513.777 1502.04 509.771 1515.01C511.915 1514.75 513.901 1513.74 515.382 1512.16C512.652 1520.79 509.91 1529.66 507.133 1538.06C508.007 1538 508.839 1537.66 509.504 1537.08C510.169 1536.5 510.631 1535.73 510.821 1534.87C513.028 1552.76 494.541 1568.48 497.523 1586.18C501.18 1585.34 504.659 1583.85 507.795 1581.78C508 1582.81 507.968 1583.87 507.703 1584.88C507.437 1585.9 506.945 1586.84 506.264 1587.63L512.895 1584.35C513.47 1583.96 514.172 1583.8 514.857 1583.92C515.56 1583.95 515.993 1584.68 516.5 1585.12C517.027 1585.52 517.642 1585.79 518.293 1585.9C518.944 1586.01 519.611 1585.95 520.238 1585.75C520.866 1585.54 521.435 1585.19 521.897 1584.71C522.359 1584.24 522.702 1583.66 522.895 1583.02C523.748 1584.07 524.826 1584.92 526.048 1585.49C527.27 1586.07 528.606 1586.36 529.955 1586.34C532.617 1586 534.515 1582.19 532.482 1580.54C532.731 1580.86 533.011 1581.15 533.319 1581.41C541.03 1588.16 550.321 1592.82 560.314 1594.93C560.654 1595.06 561.019 1595.1 561.378 1595.06C561.738 1595.02 562.083 1594.89 562.384 1594.68C563.003 1594.06 562.761 1593.04 562.507 1592.26C561.41 1589.28 559.911 1586.47 558.052 1583.91L568.16 1587.39C569.336 1587.96 570.654 1588.18 571.95 1588C572.286 1587.95 572.61 1587.84 572.9 1587.66C573.191 1587.48 573.442 1587.25 573.638 1586.97C573.835 1586.69 573.971 1586.37 574.041 1586.04C574.11 1585.7 574.109 1585.36 574.04 1585.02C571.826 1583.49 572.682 1580.51 571.55 1578.49Z" fill="#353251"/>
<path d="M-251 1779.16C-251 1779.16 -75.4235 1436.76 229.713 1429.76C534.849 1422.76 706.391 1869.03 1022 1740.66C1337.61 1612.28 1469.05 1281.64 1733 1343.66C1996.95 1405.67 2107.5 1740.66 2107.5 1740.66L1993.07 2325.66H0.341553L-251 1779.16Z" fill="#353251"/>
<path d="M1695 1196.75C1708.77 1191.55 1720.23 1181.59 1727.29 1168.67C1728.15 1167.2 1728.5 1165.49 1728.29 1163.79C1727.66 1165.18 1726.57 1166.32 1725.21 1167C1725.11 1166.29 1725.11 1165.57 1725.21 1164.86C1724.47 1166.48 1723.28 1167.85 1721.79 1168.82C1720.3 1169.79 1718.57 1170.32 1716.79 1170.35C1719.83 1167.39 1722.4 1163.98 1724.41 1160.25C1723.15 1160.49 1721.86 1160.49 1720.6 1160.25C1720.96 1159.22 1721.64 1158.33 1722.54 1157.71C1727.71 1153.42 1731.83 1148 1734.57 1141.87C1733.63 1142.96 1732.5 1143.86 1731.23 1144.54L1731.76 1142.47C1730.65 1143.03 1729.4 1143.26 1728.15 1143.14V1141.13C1726.36 1142.32 1724.18 1142.75 1722.07 1142.34C1723.95 1141.19 1725.58 1139.69 1726.88 1137.92C1725.48 1138.72 1723.89 1139.13 1722.27 1139.13V1137.26C1720.31 1138.01 1718.17 1138.17 1716.12 1137.72C1724.84 1132.94 1731.36 1124.96 1734.3 1115.46C1732.96 1117.68 1730.84 1119.33 1728.35 1120.08C1728.52 1119.39 1728.52 1118.68 1728.35 1118C1726.56 1119.35 1724.44 1120.21 1722.21 1120.48C1731.26 1112.52 1737.16 1101.59 1738.85 1089.66C1738.59 1090.02 1738.25 1090.33 1737.85 1090.55C1737.46 1090.77 1737.03 1090.9 1736.58 1090.93C1738.36 1087.59 1739.09 1083.79 1738.65 1080.03C1738.36 1080.55 1737.95 1080.99 1737.45 1081.31C1736.94 1081.63 1736.37 1081.81 1735.77 1081.84C1736.9 1080.67 1737.53 1079.11 1737.51 1077.49C1735.53 1079.56 1733.14 1081.2 1730.49 1082.31C1730.49 1079.97 1734.37 1078.76 1733.97 1076.42C1732.9 1077.43 1731.59 1078.14 1730.16 1078.5C1731.9 1076.82 1733.77 1074.75 1733.37 1072.41C1731.76 1075.06 1729.28 1077.07 1726.35 1078.09C1729.61 1074.01 1731.9 1069.23 1733.03 1064.12C1734.76 1059.33 1737.19 1054.82 1740.25 1050.75C1738.66 1051.39 1736.89 1051.39 1735.31 1050.75C1739.9 1043.79 1743.42 1036.17 1745.73 1028.16C1744.47 1028.68 1743.08 1028.84 1741.72 1028.63C1743.42 1026.68 1744.68 1024.38 1745.39 1021.9C1746.11 1019.42 1746.27 1016.81 1745.87 1014.25C1744.74 1015.97 1743.03 1017.23 1741.06 1017.8C1743.5 1015.5 1745.38 1012.66 1746.54 1009.51C1743.41 1013.73 1738.76 1016.57 1733.57 1017.39C1736.86 1011.35 1739.59 1005.02 1741.72 998.477H1738.72C1740.24 995.076 1742.05 991.811 1744.13 988.717C1743.75 988.538 1743.34 988.446 1742.93 988.446C1742.51 988.446 1742.1 988.538 1741.72 988.717C1744.34 984.625 1746.19 980.096 1747.2 975.347C1746.42 975.357 1745.65 975.071 1745.07 974.545C1747.61 970.395 1749.53 965.889 1750.75 961.175C1750.41 961.623 1749.93 961.946 1749.38 962.091C1748.84 962.236 1748.26 962.196 1747.74 961.977C1750.03 956.948 1751.32 951.522 1751.55 946L1758.23 964.517C1758.33 964.738 1758.38 964.977 1758.38 965.219C1758.38 965.461 1758.33 965.7 1758.23 965.921C1758.23 965.921 1757.77 965.921 1757.5 965.921C1759.04 968.528 1760.57 971.135 1762.04 973.742L1760.44 972.406C1762.31 976.216 1764.12 979.959 1765.99 983.703C1761.82 981.012 1758.44 977.279 1756.16 972.873C1757.58 981.043 1760.95 988.748 1765.99 995.335L1763.11 994.132C1764.88 997.374 1767.14 1000.33 1769.8 1002.89C1766.46 1001.23 1763.47 998.966 1760.97 996.204C1762.23 1001.29 1764.33 1006.12 1767.19 1010.51C1765.31 1009.6 1763.69 1008.24 1762.44 1006.57C1763.68 1013.35 1766.15 1019.86 1769.73 1025.75C1768.19 1025.09 1766.75 1024.21 1765.45 1023.14L1768.33 1027.89L1766.39 1027.09C1771.9 1039.21 1778.62 1050.74 1786.44 1061.52C1783.57 1060.04 1781.23 1057.7 1779.76 1054.83V1057.44C1778.27 1055.83 1776.97 1054.05 1775.88 1052.16C1775.88 1052.83 1774.88 1052.89 1774.34 1052.16C1773.02 1050.89 1771.88 1049.45 1770.93 1047.88V1050.28C1769.47 1049.84 1768.12 1049.09 1766.97 1048.09C1765.82 1047.09 1764.89 1045.85 1764.25 1044.47C1766.92 1049.95 1769.46 1055.43 1772.14 1060.91L1769.6 1059.78C1772.27 1064.99 1774.88 1070.21 1777.48 1075.42C1777.64 1075.68 1777.73 1075.98 1777.73 1076.29C1777.73 1076.6 1777.64 1076.9 1777.48 1077.16C1777.48 1077.16 1776.82 1077.16 1776.55 1077.16C1781.66 1087.65 1788.98 1096.91 1798.01 1104.3C1796.53 1104.48 1795.03 1104.12 1793.79 1103.3L1796.27 1106.04C1793.79 1104.82 1791.44 1103.37 1789.25 1101.69C1790.81 1104.82 1793.1 1107.52 1795.93 1109.58C1793.95 1109.46 1792.01 1108.91 1790.25 1107.98C1790.26 1109.22 1790.66 1110.44 1791.39 1111.45C1788.01 1109.49 1784.93 1107.06 1782.23 1104.23C1782.03 1105.45 1782.17 1106.7 1782.63 1107.84C1779.02 1106.09 1775.88 1103.5 1773.47 1100.29V1103.96L1770 1100.22C1773.1 1107.94 1776.81 1115.41 1781.09 1122.55C1785.31 1129.75 1791.21 1135.83 1798.27 1140.26C1797.37 1140.35 1796.46 1140.25 1795.6 1139.98C1794.74 1139.7 1793.94 1139.25 1793.26 1138.66C1795.11 1141.14 1797.37 1143.29 1799.94 1145.01C1796.36 1144.47 1793.11 1142.64 1790.79 1139.86C1790.88 1140.85 1791.22 1141.79 1791.79 1142.6C1789.22 1141.32 1786.95 1139.52 1785.1 1137.32C1785.1 1139.19 1785.1 1141.13 1785.1 1143C1783.69 1141.61 1782.44 1140.06 1781.36 1138.39C1781.76 1138.93 1781.36 1139.73 1780.43 1139.66C1779.8 1139.5 1779.26 1139.12 1778.89 1138.59L1774.34 1133.18C1782.29 1152.51 1797.3 1168.09 1816.32 1176.76H1812.58C1813.91 1178.24 1815.55 1179.41 1817.39 1180.17C1815.8 1180.66 1814.1 1180.69 1812.5 1180.24C1810.9 1179.79 1809.46 1178.88 1808.37 1177.63C1809.97 1180.69 1811.97 1183.52 1814.32 1186.06C1811.01 1183.84 1808.09 1181.08 1805.69 1177.9C1806.23 1180.05 1807.34 1182.01 1808.9 1183.58C1804.83 1181.65 1801.09 1179.11 1797.8 1176.03C1798.88 1178.45 1800.65 1180.5 1802.88 1181.91C1797.59 1179.21 1793.01 1175.29 1789.52 1170.48C1790.02 1173.95 1791.64 1177.16 1794.13 1179.64C1789.02 1175.89 1784.51 1171.38 1780.76 1166.27C1780.71 1168.44 1781.34 1170.56 1782.56 1172.35C1779.74 1171.01 1777.19 1169.18 1775.01 1166.94C1775.52 1168.95 1776.51 1170.8 1777.89 1172.35C1775.86 1171.75 1774.04 1170.62 1772.61 1169.08V1172.08C1771.22 1171.75 1769.98 1170.97 1769.06 1169.88C1771.9 1174.92 1775.59 1179.45 1779.96 1183.25C1779.55 1183.35 1779.13 1183.35 1778.72 1183.26C1778.32 1183.16 1777.94 1182.98 1777.62 1182.71C1777.87 1183.77 1778.4 1184.74 1779.16 1185.52C1776.28 1184.51 1773.52 1183.18 1770.93 1181.58C1776 1188.49 1782.97 1193.78 1790.99 1196.82C1789.69 1197.55 1788.16 1197.76 1786.71 1197.42C1786.71 1197.58 1786.77 1197.74 1786.86 1197.87C1786.96 1198 1787.09 1198.1 1787.24 1198.16C1785.39 1198.25 1783.57 1197.68 1782.1 1196.55C1784.89 1198.79 1788.1 1200.45 1791.55 1201.43C1794.99 1202.4 1798.6 1202.68 1802.15 1202.23C1800.91 1203.46 1799.4 1204.38 1797.74 1204.91L1801.41 1206.31L1796.47 1207.11L1799.54 1208.92C1793.55 1210.54 1787.21 1210.31 1781.36 1208.25C1782.81 1209.72 1784.45 1210.98 1786.24 1211.99C1785.25 1212.27 1784.21 1212.3 1783.21 1212.08C1782.2 1211.86 1781.27 1211.39 1780.49 1210.72C1784.96 1216.75 1790.49 1221.91 1796.8 1225.96C1794.56 1226.49 1792.2 1226.23 1790.12 1225.23C1790.75 1226.55 1791.53 1227.78 1792.46 1228.91C1790.67 1228.64 1789.05 1227.71 1787.91 1226.3V1228.91C1786.47 1228.5 1785.12 1227.8 1783.97 1226.83C1787.82 1232 1792.77 1236.26 1798.45 1239.31C1804.13 1242.36 1810.42 1244.13 1816.86 1244.48C1815.9 1245.21 1814.81 1245.73 1813.65 1246.02C1815.34 1245.88 1817.03 1246.23 1818.53 1247.02C1816.84 1247.83 1814.92 1248.02 1813.11 1247.56C1815.49 1249.4 1818.29 1250.6 1821.27 1251.03C1817.74 1251.95 1814 1251.52 1810.77 1249.83C1812.66 1253.67 1815.73 1256.81 1819.53 1258.79C1812.44 1258.5 1805.53 1256.4 1799.48 1252.7C1800.27 1254.35 1801.39 1255.83 1802.75 1257.05C1800.35 1257.05 1798.02 1256.31 1796.07 1254.91L1797.2 1256.98C1791.2 1256.02 1785.59 1253.38 1781.03 1249.36C1781 1250.01 1781.11 1250.65 1781.35 1251.25C1781.6 1251.85 1781.96 1252.39 1782.43 1252.84C1780.97 1252.74 1779.55 1252.33 1778.26 1251.63C1776.97 1250.94 1775.84 1249.99 1774.94 1248.83C1779.28 1256.85 1785.21 1263.9 1792.37 1269.54C1799.53 1275.19 1807.77 1279.31 1816.59 1281.65C1813.72 1282.58 1810.63 1282.58 1807.76 1281.65C1810.46 1285.1 1814.3 1287.47 1818.59 1288.33C1816.37 1288.77 1814.07 1288.63 1811.91 1287.93C1812.21 1288.96 1812.91 1289.82 1813.85 1290.34C1812.11 1290.22 1810.48 1289.48 1809.23 1288.27C1809.23 1289.07 1809.44 1289.85 1809.84 1290.54C1806.6 1290.21 1803.52 1288.98 1800.95 1287C1801.71 1288.79 1802.77 1290.44 1804.09 1291.88C1800.47 1290.86 1796.99 1289.4 1793.73 1287.53C1794.25 1289.02 1794.99 1290.42 1795.93 1291.68C1793.84 1291.07 1791.86 1290.14 1790.05 1288.94C1789.92 1290.47 1790.24 1292 1790.99 1293.35C1788.94 1292.82 1787.02 1291.91 1785.31 1290.67C1785.1 1291.49 1785.1 1292.34 1785.31 1293.15C1781.72 1291.5 1778.53 1289.11 1775.95 1286.13C1776.26 1289.94 1777.92 1293.52 1780.63 1296.22L1775.61 1293.75L1777.08 1296.69C1773.35 1295.64 1770.01 1293.52 1767.46 1290.61C1767.46 1291.57 1767.67 1292.53 1768.07 1293.4C1768.47 1294.28 1769.06 1295.06 1769.8 1295.69C1766.65 1294.64 1763.77 1292.91 1761.38 1290.61C1761.38 1294.89 1761.38 1299.23 1761.38 1303.51C1762.06 1305.2 1762.89 1306.83 1763.85 1308.39C1765.07 1310.24 1766.38 1312.03 1767.79 1313.74C1767.7 1313.8 1767.6 1313.83 1767.49 1313.83C1767.38 1313.83 1767.28 1313.8 1767.19 1313.74V1314.14C1765.45 1312.44 1763.84 1310.61 1762.38 1308.66L1761.31 1306.99C1761.31 1321.76 1761.31 1336.53 1761.31 1351.37C1761.98 1352.11 1762.58 1352.84 1763.31 1353.51V1353.85C1762.61 1353.41 1761.94 1352.92 1761.31 1352.38C1761.31 1359.06 1761.31 1365.75 1761.31 1372.43C1758.94 1371.8 1756.45 1371.8 1754.09 1372.43C1754.09 1361.94 1754.09 1351.64 1754.09 1341.28L1752.15 1342.35C1751.73 1342.53 1751.35 1342.78 1751.01 1343.08H1750.61V1342.62C1751.68 1341.75 1752.69 1340.81 1753.76 1340.01C1753.95 1339.95 1754.16 1339.95 1754.36 1340.01C1754.36 1323.16 1754.36 1306.58 1754.36 1289.67C1754.06 1290.96 1753.49 1292.17 1752.69 1293.21C1752.55 1293.23 1752.4 1293.2 1752.28 1293.14C1752.15 1293.09 1752.04 1292.99 1751.96 1292.88C1751.87 1292.76 1751.82 1292.63 1751.81 1292.49C1751.8 1292.35 1751.82 1292.21 1751.88 1292.08C1750.75 1293.84 1749.26 1295.35 1747.51 1296.5C1745.76 1297.65 1743.79 1298.42 1741.72 1298.76L1743.93 1292.81C1742.98 1294.16 1741.75 1295.27 1740.31 1296.07C1738.88 1296.87 1737.28 1297.33 1735.64 1297.43L1738.05 1294.28C1731.78 1298.24 1724.38 1300.03 1716.99 1299.36C1717.43 1298.61 1718.12 1298.02 1718.93 1297.69C1716.78 1298.12 1714.54 1297.81 1712.58 1296.82C1713.48 1296.08 1714.5 1295.49 1715.59 1295.09C1713.87 1295.38 1712.1 1295.14 1710.51 1294.42C1712.5 1292.91 1714.9 1292.02 1717.39 1291.88C1715.65 1291.88 1713.18 1291.48 1713.38 1289.74C1714.5 1289.44 1715.64 1289.23 1716.79 1289.14C1722.87 1287.96 1728.3 1284.58 1732.03 1279.64C1733.99 1277.91 1735.29 1275.55 1735.71 1272.96C1733.97 1274.76 1730.83 1273.36 1728.35 1273.9C1729.06 1273.24 1729.59 1272.41 1729.89 1271.49C1728.75 1272.15 1727.46 1272.49 1726.15 1272.49C1726.97 1271.68 1727.57 1270.66 1727.89 1269.55C1725.76 1270.47 1723.51 1271.08 1721.2 1271.36C1732.42 1265.47 1740.95 1255.49 1745 1243.48C1744.35 1244.38 1743.51 1245.13 1742.54 1245.68C1741.57 1246.22 1740.49 1246.54 1739.38 1246.62C1739.39 1245.27 1739.66 1243.92 1740.19 1242.68C1739.16 1243.83 1737.91 1244.76 1736.51 1245.42C1736.71 1244.16 1736.71 1242.87 1736.51 1241.61C1733.37 1246.36 1728.63 1249.83 1723.14 1251.37L1723.74 1249.03L1720.07 1250.97L1722.67 1246.96C1721.96 1247.44 1721.13 1247.75 1720.27 1247.86C1719.41 1247.96 1718.54 1247.86 1717.73 1247.56C1727.59 1239.41 1734.94 1228.63 1738.92 1216.47C1737.47 1217.21 1735.86 1217.6 1734.24 1217.61C1735.83 1216.32 1736.98 1214.57 1737.51 1212.59C1736.41 1213.85 1735 1214.81 1733.42 1215.37C1731.84 1215.93 1730.14 1216.08 1728.49 1215.8C1729.04 1215.27 1729.39 1214.56 1729.49 1213.8C1727.7 1214.66 1725.67 1214.87 1723.74 1214.4C1724.56 1213.76 1725.15 1212.87 1725.41 1211.86C1724.93 1212.36 1724.32 1212.71 1723.65 1212.89C1722.98 1213.07 1722.27 1213.06 1721.6 1212.86C1723.25 1212.09 1724.59 1210.8 1725.41 1209.19C1723.77 1210.73 1721.59 1211.57 1719.33 1211.53C1726.99 1203.81 1732.4 1194.15 1734.97 1183.58C1733.15 1186.58 1730.22 1188.74 1726.82 1189.6C1727.48 1188.66 1727.83 1187.54 1727.82 1186.39C1726.27 1188.83 1723.9 1190.63 1721.14 1191.47L1720.67 1189.4C1718.65 1191.48 1716.79 1193.71 1715.12 1196.08C1715.88 1194.72 1716.22 1193.16 1716.12 1191.6C1714.59 1194.21 1712.55 1196.48 1710.11 1198.28C1707.67 1200.07 1704.9 1201.35 1701.95 1202.03C1703.96 1200.69 1705.51 1198.75 1706.36 1196.48C1704.56 1197.34 1702.68 1198.03 1700.75 1198.56C1701.47 1198.26 1702.12 1197.8 1702.65 1197.22C1703.18 1196.65 1703.58 1195.96 1703.82 1195.21C1701.05 1196.43 1698.02 1196.95 1695 1196.75Z" fill="#353251"/>
<path d="M157.012 1492.96L155.725 1452.87L151.497 1451.58C152.968 1449.74 154.146 1447.68 154.99 1445.48H151.743C153.831 1442.69 154.891 1439.26 154.745 1435.78C155.878 1416.43 155.878 1397.03 154.745 1377.68C152.147 1379.91 149.155 1381.65 145.922 1382.8C149.075 1377.56 150.43 1371.43 149.782 1365.35C147.904 1366.52 145.828 1367.35 143.655 1367.79C145.254 1366.24 146.598 1364.45 147.637 1362.48C145.8 1363.59 143.603 1363.94 141.51 1363.46C142.981 1360.89 144.329 1358.09 145.799 1355.46C141.166 1357.35 136.09 1357.9 131.156 1357.05C133.629 1355.01 135.814 1352.65 137.65 1350.03C132.597 1352.12 127.105 1352.94 121.659 1352.41C128.562 1348.77 134.359 1343.35 138.447 1336.73C131.156 1340.94 122.455 1345.33 114.796 1341.85C125.703 1335.75 137.65 1328.12 140.836 1315.98C136.712 1318.57 131.849 1319.75 126.989 1319.33C132.409 1315.68 136.814 1310.73 139.795 1304.93C131.891 1309.51 122.7 1314.33 114 1311.58C121.714 1309.07 128.597 1304.51 133.913 1298.4C130.173 1299.67 126.179 1300.03 122.271 1299.44C129.062 1295.58 134.155 1289.33 136.547 1281.92C134.855 1283.79 132.511 1284.95 129.992 1285.15C133.038 1280.26 135.622 1275.09 137.712 1269.71C136.627 1270.79 135.25 1271.54 133.748 1271.85C132.247 1272.17 130.686 1272.04 129.256 1271.48L135.69 1265.38C132.209 1265.78 128.694 1265.78 125.212 1265.38C128.042 1263.24 130.723 1260.92 133.239 1258.42C129.456 1259.89 125.408 1260.55 121.352 1260.38C132.446 1254.45 141.529 1245.38 147.454 1234.32C146.22 1235.47 144.746 1236.35 143.137 1236.87C141.528 1237.4 139.822 1237.57 138.141 1237.37C144.435 1231.81 149.541 1225.04 153.152 1217.47C151.135 1218.64 148.787 1219.11 146.473 1218.82C148.817 1217.5 150.816 1215.66 152.307 1213.43C153.797 1211.2 154.738 1208.66 155.051 1206C154.23 1207.13 153.153 1208.05 151.907 1208.69C150.662 1209.32 149.283 1209.66 147.883 1209.66C149.628 1207.82 151.131 1205.77 152.355 1203.56C151.401 1204.37 150.289 1204.99 149.089 1205.37C147.888 1205.75 146.623 1205.88 145.37 1205.75C146.798 1204.55 147.939 1203.04 148.713 1201.34C149.486 1199.64 149.872 1197.79 149.843 1195.93C143.887 1198.58 137.339 1199.63 130.849 1198.98C142.941 1187.14 152.143 1172.69 157.747 1156.75C156.894 1157.42 155.876 1157.85 154.8 1158C153.723 1158.15 152.626 1158.01 151.62 1157.6L157.747 1151.5C155.787 1153.13 153.314 1154.01 150.762 1154C153.703 1152.69 156.028 1150.31 157.257 1147.35C151.767 1148.8 146.07 1149.31 140.408 1148.87C143.708 1147.79 146.553 1145.64 148.495 1142.77C146.179 1143.32 143.765 1143.32 141.449 1142.77C147.88 1140.25 153.201 1135.54 156.46 1129.47C153.417 1131.24 150.107 1132.52 146.657 1133.25L149.047 1129.22L142.92 1130.26C145.193 1127.65 147.242 1124.85 149.047 1121.9C148.229 1122.44 147.285 1122.75 146.308 1122.82C145.33 1122.88 144.352 1122.69 143.471 1122.27C149.596 1117.44 154.017 1110.79 156.093 1103.28C152.284 1104.75 148.278 1105.63 144.206 1105.91C151.855 1098.9 156.798 1089.44 158.176 1079.18C157.539 1080.23 156.64 1081.09 155.566 1081.69C154.492 1082.29 153.28 1082.6 152.049 1082.6C154.301 1079.9 156.044 1076.82 157.196 1073.5C154.967 1074.5 152.518 1074.89 150.088 1074.66C156.122 1065.53 159.785 1055.04 160.749 1044.15C160.257 1045.54 159.32 1046.74 158.081 1047.56C156.842 1048.37 155.369 1048.76 153.887 1048.66C156.104 1046.06 157.301 1042.74 157.257 1039.33C156.888 1040.09 156.347 1040.75 155.678 1041.27C155.008 1041.79 154.228 1042.15 153.397 1042.32C156.821 1036.22 159.574 1029.78 161.607 1023.09C161.391 1023.64 161.044 1024.13 160.595 1024.51C160.146 1024.89 159.61 1025.16 159.034 1025.29C160.873 1020.49 162.328 1015.55 163.384 1010.52C163.13 1011.13 162.729 1011.68 162.217 1012.1C161.704 1012.53 161.095 1012.82 160.443 1012.96C163.506 995.994 166.202 979.007 168.531 962C167.799 982.843 171.365 1003.61 179.008 1023.03L171.472 1018.94C171.858 1024.14 173.296 1029.2 175.699 1033.83L171.962 1032.92C173.713 1044.21 177.381 1055.13 182.807 1065.2C181.504 1065.4 180.172 1065.31 178.911 1064.93C177.649 1064.55 176.489 1063.89 175.515 1063C175.179 1064.7 175.179 1066.44 175.515 1068.13C174.352 1067.94 173.248 1067.48 172.283 1066.81C171.318 1066.13 170.518 1065.25 169.94 1064.23C172.175 1079.86 177.506 1094.9 185.625 1108.47C183.394 1108.84 181.103 1108.59 179.008 1107.74C179.699 1111.11 181.144 1114.28 183.235 1117.02L177.966 1116.41C179.815 1120.87 182.69 1124.84 186.36 1128C185.204 1128.54 183.933 1128.78 182.661 1128.7C181.389 1128.63 180.155 1128.24 179.069 1127.57C179.729 1131.24 181.163 1134.72 183.275 1137.8C185.387 1140.87 188.131 1143.46 191.323 1145.4C187.891 1146.19 184.355 1146.43 180.846 1146.13C181.236 1150.09 182.792 1153.85 185.319 1156.93L179.621 1157.6C184.266 1172.05 192.361 1185.16 203.21 1195.81C198.352 1195.84 193.58 1194.53 189.424 1192.02C190.714 1196.73 193.329 1200.96 196.96 1204.23L191.262 1204.53C191.501 1206.82 192.232 1209.03 193.405 1211.01C194.579 1212.99 196.168 1214.69 198.063 1216.01H191.201C191.489 1217.72 192.141 1219.35 193.113 1220.79C194.085 1222.24 195.355 1223.45 196.838 1224.37C195.966 1224.52 195.072 1224.49 194.215 1224.27C193.358 1224.05 192.56 1223.65 191.875 1223.09C196.87 1232.51 203.751 1240.82 212.094 1247.5C208.401 1248.99 204.268 1248.99 200.575 1247.5C201.737 1250.21 203.262 1252.76 205.109 1255.07C202.154 1255.67 199.078 1255.17 196.47 1253.66C196.311 1255.2 196.602 1256.75 197.309 1258.13C198.016 1259.5 199.108 1260.64 200.453 1261.41L194.325 1259.83C199.415 1268.87 207.523 1275.84 217.241 1279.54C211.228 1279.52 205.261 1278.49 199.595 1276.49C202.829 1280.85 207.284 1284.16 212.4 1286.01C207.047 1286.37 201.672 1285.77 196.531 1284.24C198.056 1288.1 200.544 1291.51 203.761 1294.15C206.977 1296.79 210.815 1298.56 214.912 1299.31C210.337 1300.75 205.475 1301.05 200.759 1300.17C206.111 1307.79 213.984 1313.3 223 1315.73C218.358 1317.16 213.449 1317.52 208.648 1316.77C203.847 1316.02 199.283 1314.18 195.306 1311.4C196.188 1313.77 197.553 1315.93 199.313 1317.74C201.074 1319.56 203.194 1320.99 205.538 1321.96C202.883 1321.96 200.248 1321.96 197.634 1321.96C200.38 1325.24 203.831 1327.88 207.733 1329.66C211.635 1331.45 215.888 1332.34 220.182 1332.27C213.264 1335.59 205.349 1336.2 198.002 1333.98C199.204 1336.27 200.852 1338.31 202.85 1339.96C204.849 1341.62 207.158 1342.86 209.643 1343.62C205.476 1344.46 201.145 1343.84 197.389 1341.85C198.928 1344.99 201.18 1347.73 203.967 1349.85C206.753 1351.96 209.998 1353.41 213.442 1354.06C206.486 1355.47 199.258 1354.66 192.794 1351.74C193.433 1354.9 194.714 1357.9 196.557 1360.56C198.401 1363.21 200.769 1365.47 203.516 1367.18C198.638 1368.89 193.321 1368.89 188.444 1367.18C190.56 1370.6 193.594 1373.37 197.205 1375.17C192.227 1375.51 187.234 1374.78 182.562 1373.04C182.792 1375.03 183.557 1376.91 184.776 1378.5C185.994 1380.09 187.621 1381.33 189.485 1382.07C185.91 1382.39 182.33 1381.51 179.314 1379.57C178.64 1393.85 179.682 1408.62 179.314 1422.9C178.846 1425.23 178.93 1427.63 179.557 1429.92C180.185 1432.21 181.339 1434.32 182.929 1436.08C181.324 1436.55 179.605 1436.42 178.089 1435.72C175.883 1437.55 179.498 1440.35 180.662 1442.98C181.102 1444.19 181.269 1445.48 181.152 1446.76C180.54 1462.51 179.968 1478.25 179.437 1494C172.007 1493 164.503 1492.65 157.012 1492.96Z" fill="#353251"/>
<path d="M1701.96 1341.26C1696.12 1333.67 1692.24 1324.75 1690.67 1315.3C1691.31 1315.68 1692.05 1315.88 1692.79 1315.85C1693.54 1315.82 1694.26 1315.58 1694.87 1315.15C1691.19 1306.56 1688.18 1305.01 1687.24 1295.96C1688.39 1296.65 1689.72 1296.97 1691.06 1296.86C1690.36 1294.66 1689.61 1292.5 1688.86 1290.35C1689.79 1291.03 1690.88 1291.44 1692.03 1291.55C1693.17 1291.65 1694.33 1291.45 1695.36 1290.95C1691.64 1281.02 1683.64 1269 1682.39 1258.46C1683.01 1259.46 1683.99 1260.19 1685.12 1260.51C1686.25 1260.84 1687.46 1260.73 1688.52 1260.22C1685.13 1253.37 1682.27 1246.27 1679.99 1238.98C1681.36 1240.01 1682.9 1240.8 1684.53 1241.31C1682.51 1238.28 1681.54 1234.67 1681.78 1231.03C1682.84 1233.12 1685.56 1235 1687.64 1233.89C1682.44 1222.86 1678 1211.48 1674.35 1199.85C1675.95 1200.48 1677.32 1201.57 1678.3 1202.98C1677.21 1200.74 1676.82 1198.22 1677.17 1195.75C1677.63 1196.19 1678.22 1196.46 1678.85 1196.52C1679.48 1196.59 1680.12 1196.44 1680.66 1196.1C1676.44 1184.87 1672.97 1173.38 1670.26 1161.7C1670.54 1163.09 1671.33 1164.32 1672.47 1165.15C1673.61 1165.99 1675.03 1166.36 1676.44 1166.2C1675.81 1165.51 1675.34 1164.7 1675.05 1163.82C1674.76 1162.93 1674.66 1162 1674.75 1161.07C1673.96 1162.19 1676.13 1163.46 1677.19 1162.54C1677.6 1161.98 1677.87 1161.32 1677.97 1160.63C1678.07 1159.94 1678.01 1159.24 1677.78 1158.58C1673.19 1131.45 1667.36 1104.57 1660.3 1077.94C1661.11 1078.74 1662.08 1079.35 1663.15 1079.73C1664.23 1080.12 1665.37 1080.26 1666.5 1080.16C1662.22 1070.53 1659.37 1060.34 1658.01 1049.89L1660.88 1051.81L1659.58 1045.74C1659.93 1046.49 1660.54 1047.11 1661.28 1047.48C1662.03 1047.85 1662.88 1047.95 1663.7 1047.77C1655.88 1022.24 1650.43 996.052 1647.4 969.526C1645.98 992.599 1643.21 1015.57 1639.08 1038.31C1640.99 1038.28 1642.82 1037.53 1644.2 1036.21C1641.87 1047.98 1638.94 1059.62 1635.41 1071.08C1638.12 1070.23 1640.54 1068.66 1642.41 1066.53C1634.9 1090.24 1629.64 1114.61 1626.72 1139.31C1629.75 1137.74 1632.33 1135.42 1634.21 1132.56C1634.26 1134.06 1634.73 1135.5 1635.04 1136.99C1638.26 1133.75 1641.12 1130.17 1643.59 1126.32C1641.99 1134.24 1638.53 1141.67 1633.51 1148C1634.68 1148.32 1635.92 1148.34 1637.1 1148.04C1638.28 1147.74 1639.36 1147.15 1640.25 1146.31C1639.64 1156.07 1636.64 1165.53 1631.51 1173.86C1632.74 1174.18 1634.04 1174.13 1635.25 1173.73C1633.22 1179.66 1631.2 1185.6 1629.13 1191.53C1625.55 1200.47 1623.38 1209.91 1622.7 1219.52C1625.86 1216.71 1628.55 1213.41 1630.65 1209.74C1630.92 1212.61 1630.54 1215.49 1629.55 1218.19C1630.42 1217.91 1631.23 1217.45 1631.93 1216.85C1632.62 1216.24 1633.18 1215.5 1633.58 1214.67C1632.8 1226.74 1631.21 1238.74 1628.82 1250.59C1629.57 1249.58 1630.67 1251.51 1630.41 1252.77C1628.09 1263.54 1625.98 1274.3 1623.5 1285.13L1626.56 1282.01L1627.17 1291.85C1629.39 1290.44 1631.23 1288.51 1632.52 1286.21C1633.19 1288.72 1633.35 1291.33 1632.98 1293.89C1632.62 1296.45 1631.74 1298.92 1630.4 1301.13C1632.42 1300.55 1634.3 1299.59 1635.95 1298.29C1633.5 1312.44 1621.3 1324.02 1620.92 1338.36L1626.59 1332.97C1626.66 1334.94 1626.42 1336.97 1626.39 1338.94L1630.6 1336.36L1626.67 1352.94C1629.71 1353.11 1632.71 1352.28 1635.23 1350.58C1637.75 1348.88 1639.64 1346.4 1640.61 1343.53C1640.18 1344.82 1639.94 1346.18 1639.92 1347.55C1639.95 1348.32 1640.7 1349.08 1641.48 1349C1641.9 1348.91 1642.29 1348.7 1642.6 1348.39C1644.32 1346.97 1645.81 1345.31 1647.04 1343.46C1646.94 1345.22 1647.23 1346.98 1647.9 1348.61C1648.66 1349.63 1650.29 1348.79 1650.93 1347.68C1651.56 1346.57 1651.82 1345.21 1652.95 1344.7C1654.04 1346.48 1655.48 1348.02 1657.2 1349.22C1658.91 1350.42 1660.85 1351.25 1662.9 1351.67C1666.98 1352.66 1679.48 1349.63 1683.57 1349.43C1684.86 1349.54 1686.14 1349.16 1687.17 1348.37C1688.07 1347.51 1691.54 1348.79 1690.29 1348.57C1692.71 1349.23 1695.27 1349.26 1697.71 1348.67L1696.27 1346.03C1698.09 1346.43 1699.98 1346.47 1701.82 1346.14C1702.05 1346.13 1702.27 1346.06 1702.47 1345.96C1702.67 1345.85 1702.85 1345.71 1702.99 1345.53C1703.68 1344.42 1701.65 1342.67 1701.96 1341.26Z" fill="#353251"/>
<path d="M1663.79 1370.99C1663.41 1360.26 1663.43 1350.66 1663.31 1339.87C1658.47 1340.4 1653.57 1339.48 1649.26 1337.2L1649.63 1378.7C1654.36 1375.94 1659.48 1374 1663.79 1370.99Z" fill="#353251"/>
<path d="M317.383 1417.55C312.029 1409.61 308.722 1400.46 307.755 1390.93C308.368 1391.35 309.091 1391.59 309.837 1391.61C310.583 1391.63 311.318 1391.44 311.954 1391.04C308.829 1382.24 305.921 1380.5 305.554 1371.41C306.656 1372.17 307.968 1372.57 309.308 1372.55C308.749 1370.31 308.136 1368.11 307.524 1365.92C308.409 1366.65 309.476 1367.13 310.612 1367.31C311.749 1367.49 312.912 1367.36 313.98 1366.93C310.893 1356.78 303.67 1344.28 303.085 1333.68C303.646 1334.71 304.57 1335.51 305.68 1335.9C306.789 1336.3 308.005 1336.27 309.095 1335.82C306.14 1328.77 303.742 1321.51 301.923 1314.09C303.227 1315.2 304.711 1316.08 306.311 1316.7C304.483 1313.55 303.747 1309.88 304.218 1306.27C305.143 1308.42 307.731 1310.46 309.885 1309.49C305.391 1298.15 301.679 1286.52 298.776 1274.68C300.329 1275.41 301.631 1276.58 302.52 1278.05C301.573 1275.74 301.337 1273.21 301.842 1270.77C302.274 1271.23 302.849 1271.54 303.475 1271.64C304.102 1271.75 304.745 1271.64 305.302 1271.33C301.806 1259.86 299.067 1248.17 297.102 1236.34C297.292 1237.75 298.002 1239.03 299.091 1239.93C300.18 1240.84 301.569 1241.3 302.982 1241.23C302.403 1240.5 301.982 1239.66 301.748 1238.76C301.515 1237.86 301.472 1236.92 301.625 1236C300.765 1237.07 302.852 1238.48 303.966 1237.62C304.412 1237.09 304.722 1236.45 304.868 1235.77C305.013 1235.09 304.991 1234.38 304.802 1233.71C301.939 1206.34 297.826 1179.14 292.463 1152.12C293.219 1152.97 294.152 1153.64 295.197 1154.09C296.242 1154.55 297.373 1154.76 298.511 1154.73C294.851 1144.85 292.643 1134.5 291.956 1123.99L294.698 1126.09L293.781 1119.94C294.087 1120.72 294.648 1121.37 295.371 1121.78C296.095 1122.2 296.938 1122.36 297.763 1122.23C291.576 1096.26 287.788 1069.77 286.445 1043.11C283.573 1066.05 279.349 1088.79 273.795 1111.23C275.702 1111.32 277.572 1110.69 279.032 1109.46C275.964 1121.06 272.301 1132.49 268.06 1143.7C270.813 1143.03 273.328 1141.61 275.333 1139.6C266.335 1162.79 259.548 1186.78 255.063 1211.25C258.192 1209.87 260.914 1207.72 262.968 1204.98C262.926 1206.49 263.3 1207.95 263.517 1209.46C266.932 1206.42 270.018 1203.03 272.723 1199.34C270.626 1207.15 266.708 1214.35 261.292 1220.35C262.442 1220.74 263.676 1220.84 264.873 1220.61C266.07 1220.39 267.19 1219.87 268.123 1219.08C266.899 1228.79 263.308 1238.04 257.666 1246.03C258.874 1246.42 260.171 1246.46 261.398 1246.13C259.005 1251.93 256.612 1257.72 254.167 1263.52C250.033 1272.21 247.271 1281.5 245.976 1291.04C249.311 1288.44 252.201 1285.31 254.536 1281.79C254.617 1284.66 254.058 1287.51 252.901 1290.14C253.792 1289.92 254.628 1289.52 255.357 1288.96C256.087 1288.4 256.694 1287.69 257.142 1286.89C255.605 1298.89 253.261 1310.76 250.127 1322.44C250.932 1321.48 251.914 1323.47 251.568 1324.71C248.573 1335.31 245.785 1345.92 242.633 1356.57L245.879 1353.65L245.862 1363.51C248.169 1362.25 250.127 1360.43 251.561 1358.22C252.072 1360.76 252.065 1363.38 251.539 1365.91C251.013 1368.45 249.98 1370.85 248.501 1372.97C250.553 1372.53 252.497 1371.68 254.225 1370.49C250.877 1384.45 237.969 1395.25 236.686 1409.53L242.688 1404.51C242.633 1406.48 242.265 1408.49 242.106 1410.46L246.477 1408.14L241.506 1424.45C244.522 1424.81 247.573 1424.17 250.193 1422.63C252.812 1421.1 254.856 1418.74 256.011 1415.93C255.496 1417.2 255.178 1418.54 255.069 1419.9C255.047 1420.68 255.751 1421.48 256.53 1421.45C256.961 1421.39 257.363 1421.2 257.686 1420.91C259.49 1419.61 261.09 1418.04 262.433 1416.27C262.217 1418.02 262.398 1419.8 262.962 1421.47C263.658 1422.53 265.339 1421.8 266.043 1420.73C266.747 1419.66 267.096 1418.32 268.25 1417.88C269.225 1419.73 270.571 1421.36 272.203 1422.66C273.836 1423.97 275.719 1424.92 277.737 1425.47C281.748 1426.72 294.416 1424.48 298.512 1424.54C299.791 1424.73 301.095 1424.44 302.167 1423.71C303.123 1422.91 306.505 1424.4 305.268 1424.11C307.648 1424.92 310.194 1425.12 312.67 1424.68L311.398 1421.95C313.195 1422.46 315.077 1422.62 316.935 1422.41C317.163 1422.41 317.387 1422.36 317.595 1422.27C317.803 1422.18 317.989 1422.05 318.143 1421.88C318.899 1420.81 316.981 1418.94 317.383 1417.55Z" fill="#353251"/>
<path d="M277.402 1444.81C277.704 1434.08 278.335 1424.5 278.897 1413.72C274.028 1413.95 269.203 1412.71 265.043 1410.17L262.791 1451.61C267.684 1449.15 272.917 1447.53 277.402 1444.81Z" fill="#353251"/>
<path d="M1517.15 1499.28C1508.78 1463.32 1503.65 1426.7 1501.82 1389.84L1503.94 1392.34C1502.24 1388.23 1501.35 1383.83 1501.33 1379.38C1502.73 1380.49 1504.14 1381.36 1505.49 1382.47C1501.33 1368.02 1497.85 1352.84 1495.09 1337.81C1496.59 1339.55 1498.04 1341.33 1499.49 1343.11C1498.76 1340.33 1498.53 1337.45 1498.82 1334.59L1503.17 1335.45C1499.43 1316.16 1494.39 1297.14 1488.07 1278.52C1488.86 1279.72 1489.92 1280.72 1491.16 1281.44C1492.4 1282.16 1493.8 1282.58 1495.24 1282.66C1490.78 1260.18 1486.32 1237.85 1481.83 1215.66L1487.01 1217.29L1478.01 1192.15L1485.75 1201.78C1485.22 1201.11 1484.86 1200.32 1484.71 1199.48C1484.55 1198.64 1484.61 1197.78 1484.88 1196.97C1485.05 1198.23 1485.65 1199.41 1486.58 1200.29C1487.52 1201.16 1488.73 1201.69 1490.01 1201.78C1487.05 1184.64 1482.96 1167.72 1477.77 1151.11C1478.75 1151.72 1479.93 1151.93 1481.06 1151.69C1475.18 1134.77 1470.33 1117.5 1466.54 1100C1463.97 1118.29 1458.47 1136.05 1450.24 1152.6C1452.31 1152.59 1454.32 1151.93 1456 1150.72C1455.74 1157.12 1454.09 1163.38 1451.16 1169.08C1452.55 1168.8 1453.87 1168.25 1455.03 1167.44C1450.1 1183.14 1445.18 1198.86 1440.27 1214.6C1443.27 1212.41 1445.7 1209.56 1447.39 1206.26C1445.45 1222.32 1443.13 1238.38 1440.42 1254.43C1442 1253.74 1443.38 1252.64 1444.39 1251.24C1445.4 1249.84 1446.02 1248.2 1446.18 1246.48L1444.29 1259.78C1445.82 1259.17 1447.05 1258 1447.72 1256.5C1446.66 1284.36 1442.85 1312.05 1436.35 1339.16C1438.1 1338.31 1439.62 1337.06 1440.8 1335.52C1441.99 1333.99 1442.8 1332.2 1443.18 1330.3C1443.36 1336.54 1442.32 1342.76 1440.13 1348.6L1444.24 1346.1C1443.93 1351.44 1442.37 1356.63 1439.69 1361.27C1441.39 1360.8 1442.92 1359.85 1444.08 1358.53C1445.25 1357.22 1446.01 1355.59 1446.27 1353.85C1445.71 1371.96 1442.56 1389.9 1436.94 1407.13C1437.94 1407.16 1438.94 1406.97 1439.86 1406.57C1440.78 1406.17 1441.6 1405.57 1442.26 1404.82C1440.96 1411.32 1440.6 1417.97 1441.19 1424.57L1446.85 1416.19C1443.63 1440.27 1440.06 1464.36 1436.16 1488.44L1439.84 1485.07C1438.58 1492.54 1436.98 1499.95 1435 1507.28C1441.13 1507.94 1447.33 1507.48 1453.29 1505.93C1453.13 1506.34 1453.09 1506.78 1453.19 1507.21C1453.28 1507.64 1453.5 1508.03 1453.82 1508.33L1470.13 1509.59C1471.01 1509.68 1471.9 1509.68 1472.79 1509.59C1475.79 1509.11 1477.96 1506.36 1480.82 1505.4C1483.27 1507.84 1486.27 1509.65 1489.57 1510.7C1491.23 1511.18 1493 1511.08 1494.59 1510.42C1496.17 1509.75 1497.48 1508.55 1498.28 1507.03C1505.32 1508.78 1512.57 1509.48 1519.81 1509.11C1520.12 1507.37 1520.05 1505.59 1519.59 1503.9C1519.13 1502.2 1518.3 1500.62 1517.15 1499.28Z" fill="#353251"/>
<path d="M1604.62 1433.46C1599.11 1426 1595.6 1417.24 1594.45 1408.02L1592.82 1397.23L1596.19 1398.49C1595.93 1386.83 1592.99 1375.38 1587.62 1365.03C1586.77 1363.69 1586.25 1362.18 1586.1 1360.6C1585.99 1359.02 1587.37 1357.33 1588.92 1357.41C1587.32 1353.77 1586.31 1349.9 1585.94 1345.95C1587.13 1346.48 1588.48 1346.54 1589.71 1346.12C1586.98 1337.6 1585.14 1328.82 1584.21 1319.92C1584.53 1319.87 1584.85 1319.9 1585.16 1319.99C1585.47 1320.08 1585.75 1320.24 1586 1320.45C1586.24 1320.66 1586.44 1320.92 1586.57 1321.22C1586.7 1321.51 1586.77 1321.83 1586.78 1322.15L1583.49 1300.09C1583.76 1300.86 1584.25 1301.52 1584.9 1302C1585.56 1302.48 1586.34 1302.75 1587.15 1302.77C1582.91 1284.46 1577.52 1266.44 1571.02 1248.81L1578.43 1252.77C1574.61 1246.96 1572.24 1240.31 1571.52 1233.38L1565.88 1202.51C1562.06 1184.88 1559.42 1167.01 1557.98 1149.03C1556.99 1169.91 1554.65 1190.7 1550.98 1211.28C1551.72 1211.44 1552.48 1211.44 1553.22 1211.28C1553.95 1211.12 1554.65 1210.8 1555.25 1210.35L1551.23 1239.58L1555.75 1235.21C1555.26 1253.68 1544.05 1271.16 1546.41 1289.52L1549.58 1283.32C1549.47 1286.46 1549.4 1289.6 1549.3 1292.99C1552.09 1290.39 1554.55 1287.46 1556.64 1284.27C1556.42 1293.1 1554.14 1301.75 1549.98 1309.54L1553.98 1308.87L1544.54 1355.56L1549.47 1350.97C1549.55 1353.33 1549.27 1355.69 1548.66 1357.97L1551.23 1355.48C1551.19 1366.52 1550.17 1377.54 1548.2 1388.4C1549.9 1387.94 1551.4 1386.94 1552.48 1385.55C1551.11 1392.78 1549.73 1399.97 1548.31 1407.21C1549.02 1407.1 1549.67 1406.75 1550.15 1406.23C1550.64 1405.7 1550.94 1405.03 1551 1404.32C1554.56 1418.55 1541.07 1433.05 1545.23 1447.04C1548.14 1446.01 1550.82 1444.45 1553.15 1442.43C1553.41 1443.24 1553.49 1444.1 1553.37 1444.95C1553.25 1445.79 1552.95 1446.59 1552.48 1447.3L1557.55 1444.01C1557.98 1443.63 1558.53 1443.44 1559.1 1443.46C1559.68 1443.42 1560.1 1443.97 1560.56 1444.28C1561.03 1444.54 1561.55 1444.68 1562.09 1444.7C1562.63 1444.72 1563.16 1444.61 1563.64 1444.38C1564.13 1444.15 1564.56 1443.81 1564.89 1443.39C1565.22 1442.97 1565.45 1442.47 1565.55 1441.95C1566.36 1442.7 1567.32 1443.27 1568.37 1443.61C1569.41 1443.96 1570.52 1444.07 1571.62 1443.93C1573.75 1443.4 1574.92 1440.13 1573.1 1439C1573.34 1439.25 1573.6 1439.48 1573.87 1439.67C1580.82 1444.34 1588.83 1447.18 1597.16 1447.93C1597.45 1448 1597.75 1448 1598.04 1447.92C1598.33 1447.84 1598.6 1447.69 1598.81 1447.47C1599.26 1446.96 1598.96 1446.16 1598.68 1445.55C1597.49 1443.25 1596 1441.11 1594.23 1439.21L1602.8 1441.07C1603.82 1441.37 1604.9 1441.41 1605.94 1441.18C1606.44 1441.02 1606.87 1440.67 1607.12 1440.2C1607.38 1439.74 1607.44 1439.19 1607.3 1438.68C1605.34 1437.46 1605.74 1434.97 1604.62 1433.46Z" fill="#353251"/>
<path d="M1414.28 1510.61C1409.23 1505.97 1405.41 1500.14 1403.17 1493.65C1404.11 1494.04 1405.12 1494.25 1406.14 1494.25C1407.16 1494.26 1408.17 1494.06 1409.11 1493.67C1404.93 1488.63 1401.47 1483.02 1398.85 1477.02C1399.26 1476.87 1399.7 1476.82 1400.14 1476.86C1400.58 1476.91 1401 1477.05 1401.38 1477.29C1399.99 1476.29 1398.99 1474.83 1398.56 1473.17C1399.75 1473.46 1400.98 1473.47 1402.17 1473.18C1403.35 1472.89 1404.45 1472.32 1405.37 1471.52C1403.1 1470.37 1401.11 1468.73 1399.55 1466.73C1397.98 1464.72 1396.88 1462.39 1396.31 1459.9C1396.99 1460.45 1397.79 1460.82 1398.65 1460.99C1399.5 1461.16 1400.38 1461.12 1401.22 1460.89C1400.52 1459.93 1400.11 1458.78 1400.07 1457.59L1403.5 1457.64C1402.79 1457.2 1402.21 1456.59 1401.81 1455.86C1401.41 1455.13 1401.2 1454.31 1401.21 1453.48C1402.22 1453.9 1403.35 1453.99 1404.41 1453.72C1405.47 1453.45 1406.42 1452.85 1407.12 1452C1402.66 1447.93 1398.84 1443.22 1395.78 1438.01C1397.76 1438.52 1399.85 1438.34 1401.72 1437.5C1397.42 1434.82 1394.16 1430.74 1392.47 1425.95C1393.44 1426.23 1394.49 1426.14 1395.4 1425.7C1394.22 1424.94 1393.23 1423.93 1392.49 1422.75L1397.28 1422.34C1396.61 1421.87 1396.06 1421.26 1395.67 1420.55C1395.27 1419.83 1395.04 1419.04 1394.99 1418.23L1398.87 1417.89C1396.4 1415.48 1394.33 1412.68 1392.76 1409.61C1394.05 1409.49 1395.17 1409.06 1396.46 1408.95C1391.03 1404.53 1387.32 1398.33 1385.98 1391.45C1386.48 1391.75 1387.02 1391.94 1387.59 1392.03C1388.16 1392.11 1388.75 1392.08 1389.3 1391.94C1387.91 1388.67 1386.57 1385.39 1385.22 1382.07C1386.33 1382.08 1387.42 1381.78 1388.38 1381.22C1385.72 1378.96 1383.71 1376.02 1382.58 1372.71L1385.63 1373.9C1385.48 1372.12 1385.32 1370.3 1385.16 1368.47C1386.06 1369.36 1387.67 1368.5 1387.95 1367.26C1388.1 1366.03 1387.81 1364.78 1387.12 1363.75L1377.14 1343.64L1381.92 1345.89C1381.82 1344.84 1381.73 1343.73 1381.64 1342.67C1381.8 1343.08 1382.06 1343.43 1382.41 1343.69C1382.75 1343.96 1383.16 1344.13 1383.59 1344.18C1384.02 1344.23 1384.45 1344.17 1384.85 1343.99C1385.24 1343.82 1385.58 1343.54 1385.83 1343.18C1384.22 1342.31 1382.82 1341.09 1381.73 1339.61C1380.65 1338.13 1379.9 1336.42 1379.55 1334.62C1378.67 1331.74 1377.94 1328.85 1377.2 1325.91C1377.08 1324.52 1376.54 1323.21 1376.23 1321.83C1374.97 1316.81 1373.72 1311.73 1372.51 1306.7C1372.94 1307.1 1373.49 1307.34 1374.07 1307.39C1374.65 1307.44 1375.23 1307.29 1375.72 1306.96C1372.12 1299.88 1369.21 1292.45 1367.06 1284.8C1367.36 1285.16 1367.75 1285.44 1368.18 1285.62C1368.62 1285.8 1369.09 1285.88 1369.56 1285.84L1368.85 1282.08L1371.94 1283.75C1371.39 1281.38 1370.9 1279 1370.36 1276.67C1370.71 1277.37 1371.9 1277.12 1372.23 1276.51C1372.46 1275.76 1372.39 1274.95 1372.04 1274.25C1369.42 1266.29 1366.85 1258.33 1364.24 1250.37L1367.25 1251.71C1363.5 1242.44 1361.04 1232.7 1359.93 1222.75C1358.88 1237.86 1357.13 1252.87 1354.68 1267.8C1355.29 1267.84 1355.9 1267.74 1356.48 1267.52C1357.05 1267.31 1357.57 1266.98 1358 1266.55C1359.5 1274.99 1359.11 1283.66 1356.86 1291.93L1359.05 1289.94C1359.84 1300.81 1359.27 1311.72 1357.36 1322.44C1358.68 1321.47 1359.78 1320.22 1360.57 1318.77C1361.04 1321.5 1360.95 1324.29 1360.31 1326.98C1361.38 1326.74 1362.37 1326.22 1363.17 1325.47C1363.71 1333.62 1362.11 1341.77 1358.54 1349.11C1359.27 1349.33 1360.04 1349.31 1360.75 1349.07C1361.47 1348.82 1362.09 1348.37 1362.53 1347.75C1362.1 1352.16 1360.83 1356.45 1358.79 1360.38C1361.65 1358.67 1363.95 1356.17 1365.41 1353.17C1363.88 1358.98 1361.65 1364.59 1358.79 1369.87C1359.5 1369.9 1360.22 1369.77 1360.88 1369.48C1361.54 1369.2 1362.13 1368.77 1362.6 1368.23C1362.86 1371.13 1362.33 1374.03 1361.06 1376.65C1361.82 1377.94 1362.2 1379.42 1362.14 1380.92C1362.08 1382.42 1361.59 1383.87 1360.72 1385.1C1361.24 1385.33 1361.8 1385.43 1362.36 1385.38C1362.93 1385.33 1363.47 1385.14 1363.93 1384.82C1364.59 1388.86 1364.27 1392.99 1362.99 1396.87L1366.55 1395.01C1363.93 1406.59 1360.05 1417.84 1354.95 1428.55L1360.36 1424.11C1360.49 1425.55 1360.61 1427 1360.5 1428.46C1361.65 1427.96 1362.67 1427.21 1363.49 1426.26L1363.74 1429.15C1365.44 1428.12 1366.96 1426.83 1368.24 1425.32C1366.97 1429.9 1365.02 1434.27 1362.45 1438.27L1364.59 1438.42C1364.39 1440.57 1364.13 1442.67 1363.93 1444.82C1363.85 1449.65 1362.28 1454.33 1359.44 1458.23C1360.34 1458.66 1361.34 1458.84 1362.33 1458.75C1363.32 1458.66 1364.28 1458.32 1365.09 1457.75C1365.17 1462.19 1364.36 1466.6 1362.73 1470.73L1368.49 1465.78C1367.19 1474.26 1364.34 1482.42 1360.08 1489.85C1362.59 1488.95 1364.81 1487.39 1366.5 1485.32L1362.12 1498.87L1366.73 1496.44C1366 1502.14 1363.74 1507.54 1360.21 1512.06C1361.27 1512.21 1362.35 1512.12 1363.37 1511.81C1364.4 1511.5 1365.34 1510.96 1366.13 1510.25C1366.23 1511.43 1366.07 1512.62 1365.65 1513.74C1365.24 1514.85 1364.59 1515.86 1363.75 1516.7C1366.66 1517.06 1369.61 1516.45 1372.14 1514.96C1375.67 1512.82 1378.65 1512.07 1382.35 1510.25C1382.28 1511.61 1381.74 1512.91 1380.83 1513.92C1382.91 1513.66 1384.87 1512.78 1386.46 1511.4C1386.41 1512.5 1386.69 1513.59 1387.26 1514.53C1388.4 1513.33 1389.19 1511.84 1389.54 1510.22C1392.51 1512.82 1396.42 1515.58 1400.11 1514.15L1398.84 1511.21C1403.27 1513.35 1409.06 1511.54 1414.28 1510.61Z" fill="#353251"/>
<rect x="5.5" y="5.5" width="1909" height="3370" stroke="black" stroke-width="11"/>
</svg>
